<?xml version="1.0" encoding="utf-8"?>
<!-- Generator: Adobe Illustrator 16.0.0, SVG Export Plug-In . SVG Version: 6.00 Build 0)  -->
<!DOCTYPE svg PUBLIC "-//W3C//DTD SVG 1.1//EN" "http://www.w3.org/Graphics/SVG/1.1/DTD/svg11.dtd">
<svg version="1.1" id="Layer_1" xmlns="http://www.w3.org/2000/svg" xmlns:xlink="http://www.w3.org/1999/xlink" x="0px" y="0px"
	 width="6000px" height="800px" viewBox="0 0 6000 800" enable-background="new 0 0 6000 800" xml:space="preserve">
<g>
	<g>
		<path d="M2353.5,314.167c1.935,0,1.935-3,0-3S2351.565,314.167,2353.5,314.167L2353.5,314.167z"/>
	</g>
</g>
<g>
</g>
<g>
	<g>
		<path d="M779.069,244.205c12.447-31.769,11.927-69.378-3.151-100.167c-0.357-0.729-1.39-0.934-2.052-0.538
			c-23.561,14.079-23.833,50.431-9.54,71.06c0.425,0.613,1.36,1.053,2.052,0.539c9.402-6.985,15.137-17.979,13.24-29.859
			c-2.021-12.653-10.872-22.256-22.599-26.889c-0.768-0.304-1.638,0.326-1.845,1.047c-9.429,32.73,5.51,75.452,33.692,94.704
			c0.661,0.451,1.682,0.143,2.053-0.539c9.978-18.322,13.088-40.607,14.456-61.138c1.385-20.787,0.857-44.285-8.456-63.388
			c-0.574-1.177-2.447-0.852-2.742,0.358c-6.043,24.836-6.043,50.97,0,75.806c0.356,1.464,2.503,1.402,2.893,0
			c6.242-22.459,5.843-48.6-9.386-67.466c-0.445-0.551-1.251-0.499-1.818-0.235c-28.833,13.418-24.607,53.372-21.745,79.303
			c0.095,0.864,0.905,1.843,1.899,1.446c6.504-2.596,13.496-4.969,19.039-9.387c6.063-4.832,9.514-11.443,12.012-18.664
			c0.44-1.272-1.121-2.336-2.203-1.694c-22.538,13.367-30.494,43.28-24.691,67.701c0.234,0.986,1.372,1.323,2.203,0.896
			c17.65-9.053,30.272-24.202,36.693-42.9c0.476-1.385-1.118-2.169-2.204-1.694c-25.571,11.202-45.439,34.16-62.185,55.74
			c-17.8,22.938-33.34,47.867-46.364,73.812c-0.448,0.892-0.062,1.887,0.896,2.203c34.136,11.253,74.124,14.954,98.348,44.619
			c0.672,0.823,2.349,0.417,2.507-0.662c5.641-38.416-8.772-83.304,17.616-116.351c-0.606,0.078-1.212,0.156-1.818,0.235
			c26.37,14.412,35.364,49.249,40.81,76.458c5.953,29.744,7.454,60.071,9.453,90.263c0.982-0.133,1.964-0.266,2.946-0.398
			c-11.718-35.922-9.004-74.103-15.001-111.012c-0.218-1.343-2.13-1.381-2.742-0.358c-18.927,31.664-2.433,73.252,10.673,103.84
			c8.57,20.002,18.505,39.384,28.014,58.946c8.068,16.599,16.376,33.494,21.168,51.391c0.964-0.266,1.928-0.531,2.893-0.797
			c-24.241-61.379-17.433-129.28-36.003-192.02c-0.326-1.103-1.679-1.438-2.507-0.662c-11.037,10.361-17.456,24.876-22.308,38.951
			c-6.385,18.524-9.859,38.033-12.148,57.447c-2.429,20.599-3.183,41.428-2.371,62.15c0.664,16.956,2.345,34.169,6.773,50.596
			c0.76,2.818,1.654,5.6,2.666,8.337c0.44,1.191,2.029,1.535,2.742,0.358c5.661-9.35,8.084-20.642,9.978-31.27
			c2.722-15.271,3.754-30.851,3.949-46.345c0.419-33.365-2.905-68.391-14.823-99.786c-8.427-22.2-24.881-46.709-51.85-43.664
			c-29.417,3.322-38.926,39.643-41.934,63.917c-2.105,16.984-1.679,34.362,0.944,51.263c1.979,12.744,5.245,26.818,13.372,37.181
			c0.418,0.533,1.278,0.528,1.817,0.234c21.533-11.741,40.168-28.242,56.935-45.988c17.177-18.182,32.459-38.294,45.614-59.56
			c-0.864-0.504-1.727-1.009-2.591-1.514c-23.274,38.992-39.235,81.988-50.031,125.996c-10.636,43.357-16.112,88.145-16.18,132.786
			c-0.002,1.183,1.263,1.809,2.257,1.295c15.234-7.875,22.664-21.267,22.246-38.27c-0.451-18.302-7.752-35.993-12.556-53.433
			c-0.402-1.46-2.464-1.403-2.893,0c-6.534,21.398-11.206,43.344-13.834,65.564c-2.632,22.251-3.093,45.272,1.833,67.245
			c0.376,1.678,2.947,1.271,2.946-0.398c-0.04-91.786-6.533-186.076,17.948-275.629c0.442-1.618-1.942-2.687-2.742-1.155
			c-2.708,5.185-6.293,9.817-9.001,15.002c0.932,0.252,1.864,0.505,2.795,0.757c-2.756-38.026,20.849-73.221,14.948-111.41
			c-0.145-0.935-1.458-1.396-2.204-0.896c-20.781,13.93-39.982,30.221-58.218,47.308c-18.143,17.001-35.622,35.144-50.331,55.241
			c0.864,0,1.727,0,2.591,0c-12.895-23.253-11.763-55.448-2.85-79.853c0.589-1.614-1.942-2.633-2.742-1.156
			c-18.643,34.461-29.195,73.609-53.771,104.707c0.854,0.354,1.707,0.707,2.561,1.061c2.017-16.182,4.087-32.347,6.937-48.409
			c3.249-18.31,6.938-37.505,15.125-54.348c2.566-5.279,6.072-11.355,11.759-13.712c5.324-2.207,11.56-1.965,17.185-1.529
			c17.392,1.348,34.61,7.08,51.002,12.71c31.013,10.653,60.831,24.258,90.755,37.576c0.933,0.415,1.843,0.08,2.204-0.896
			c7.594-20.572,17.487-76.646-19.448-73.906c0.482,0.367,0.964,0.734,1.446,1.101c-6.187-15.986-4.589-31.56,2.849-46.849
			c0.508-1.045-0.111-2.191-1.295-2.257c-8.216-0.453-33.265,0.351-23.478,15.063c8.259,12.416,27.504,17.783,41.48,17.94
			c-0.432-0.752-0.863-1.505-1.295-2.257c-3.463,5.379-5.17,11.797-6.703,17.94c-2.104,8.435-3.577,17.025-5.192,25.563
			c-1.623,8.58-3.308,17.165-5.722,25.563c-1.902,6.619-4.323,14.096-9.557,18.875c-12.001,10.957-30.689-7.351-38.727-15.112
			c-12.063-11.649-21.981-25.235-33.753-37.128c-0.623-0.629-1.486-0.508-2.121,0c-8.189,6.542-13.142,16.44-17.008,25.957
			c-5.245,12.911-8.22,26.735-9.986,40.52c-1.727,13.474-1.995,27.262,0.067,40.711c1.467,9.572,4.501,20.228,11.926,26.946
			c0.908,0.822,2.07,0.384,2.507-0.662c8.214-19.673,10.454-51.173-12.69-61.7c-0.744-0.338-1.608-0.22-2.052,0.539
			c-9.324,15.935-11.922,34.641-12.525,52.816c-0.653,19.701,1.527,39.365,3.319,58.952c0.074,0.809,0.626,1.507,1.5,1.5
			c3.468-0.027,4.473-1.033,4.5-4.501c-0.982,0.133-1.964,0.266-2.946,0.398c2.416,9.924,3.584,20.08,6.001,30.003
			c0.466,1.915,3.195,1.069,2.893-0.797c-2.554-15.792-2.945-31.644-2.947-47.606c0-1.718-2.461-2.012-2.946-0.398
			c-12.566,41.794-6.134,86.529-6.054,129.411c0.003,1.935,3.001,1.935,3,0c-0.033-52.12-2.74-104.968,11.947-155.617
			c0.54-1.862-2.355-2.651-2.893-0.797c-14.762,50.906-12.088,104.026-12.055,156.414c1,0,2,0,3,0
			c-0.08-42.6-6.535-87.099,5.947-128.614c-0.982-0.133-1.964-0.266-2.946-0.398c0.001,16.236,0.457,32.345,3.054,48.403
			c0.964-0.266,1.928-0.531,2.893-0.797c-2.416-9.924-3.584-20.08-6.001-30.003c-0.406-1.67-2.933-1.276-2.946,0.398
			c-0.012,1.496-0.004,1.489-1.5,1.501c0.5,0.5,1,1,1.5,1.5c-1.654-18.074-3.509-36.134-3.408-54.307
			c0.107-19.089,2.398-39.19,12.204-55.948c-0.684,0.18-1.369,0.359-2.052,0.539c21.917,9.968,19.016,39.859,11.312,58.312
			c0.835-0.221,1.671-0.441,2.507-0.662c-7.103-6.427-9.658-16.517-11.154-25.623c-2.093-12.74-1.573-25.958-0.103-38.732
			c1.524-13.247,4.556-26.425,9.245-38.913c3.654-9.732,8.731-20.006,17.014-26.623c-0.707,0-1.414,0-2.121,0
			c12.619,12.749,23.227,27.287,36.347,39.598c9.484,8.899,24.322,21.686,38.018,14.353c5.245-2.808,8.068-9.157,10.158-14.383
			c3.338-8.349,5.137-17.333,6.9-26.117c1.9-9.463,3.498-18.986,5.579-28.413c1.596-7.229,3.306-15.04,7.365-21.344
			c0.629-0.978-0.2-2.245-1.295-2.257c-13.011-0.146-27.482-4.729-36.876-14.074c-2.597-2.583-5.528-6.842-2.145-9.946
			c4.871-4.469,15.11-3.309,21.02-2.983c-0.432-0.752-0.863-1.505-1.295-2.257c-7.773,15.978-9.631,32.417-3.151,49.161
			c0.23,0.594,0.739,1.153,1.446,1.101c34.189-2.536,23.441,51.453,16.555,70.108c0.734-0.299,1.469-0.598,2.204-0.896
			c-30.169-13.426-60.233-27.064-91.472-37.877c-16.223-5.616-32.991-10.845-50.129-12.664c-11.332-1.203-21.921-0.282-29.031,9.459
			c-4.991,6.837-7.923,15.288-10.483,23.269c-3.459,10.779-5.885,21.891-8.024,32.996c-3.515,18.251-5.839,36.687-8.137,55.12
			c-0.157,1.259,1.781,2.048,2.561,1.061c24.769-31.343,35.453-70.585,54.24-105.313c-0.914-0.386-1.828-0.771-2.742-1.156
			c-9.192,25.169-10.126,58.22,3.151,82.164c0.592,1.067,1.958,0.865,2.591,0c14.246-19.464,31.204-36.959,48.68-53.519
			c18.336-17.375,37.79-33.875,58.793-47.953c-0.735-0.299-1.469-0.598-2.204-0.896c5.838,37.787-17.79,72.877-15.055,110.612
			c0.101,1.39,2.056,2.173,2.795,0.757c2.708-5.185,6.293-9.817,9.001-15.002c-0.914-0.385-1.828-0.771-2.742-1.155
			c-24.554,89.818-18.095,184.367-18.056,276.426c0.982-0.133,1.964-0.266,2.946-0.398c-4.755-21.209-4.224-43.277-1.915-64.768
			c2.417-22.506,7.31-44.813,13.917-66.448c-0.964,0-1.928,0-2.893,0c4.354,15.809,10.311,31.409,12.112,47.799
			c0.831,7.556,0.385,15.217-2.353,22.358c-3.202,8.352-10.347,14.165-18.072,18.158c0.752,0.432,1.505,0.863,2.257,1.295
			c0.068-44.438,5.62-88.811,16.073-131.989c10.594-43.762,26.611-86.548,49.729-125.279c0.995-1.667-1.576-3.155-2.591-1.514
			c-13.046,21.091-28.205,40.841-45.145,58.952c-16.488,17.628-35.052,33.919-56.327,45.52c0.605,0.078,1.211,0.156,1.817,0.234
			c-7.965-10.157-10.813-24.345-12.744-36.783c-2.585-16.655-2.64-33.831-0.569-50.542c3.208-25.883,15.692-64.797,48.956-59.762
			c27.792,4.207,39.463,38.986,45.286,62.206c8.341,33.257,9.961,68.735,7.063,102.816c-1.431,16.83-3.382,36.58-12.34,51.377
			c0.914,0.119,1.828,0.238,2.742,0.358c-5.606-15.174-7.567-31.651-8.747-47.689c-1.498-20.38-1.096-40.918,0.638-61.269
			c1.743-20.454,5.037-40.898,10.842-60.611c4.539-15.413,10.856-31.625,22.208-43.368c0.541-0.56,1.108-1.093,1.675-1.625
			c-0.835-0.221-1.671-0.441-2.507-0.662c18.57,62.736,11.761,130.636,36.003,192.019c0.694,1.757,3.405,1.114,2.893-0.797
			c-4.422-16.516-11.891-32.167-19.259-47.529c-9.179-19.138-18.882-38.021-27.544-57.404
			c-8.169-18.279-15.577-37.198-19.322-56.935c-3.186-16.791-3.027-34.949,5.968-49.997c-0.914-0.12-1.828-0.239-2.742-0.358
			c5.999,36.92,3.276,75.069,15.001,111.011c0.504,1.546,3.063,1.36,2.946-0.398c-2.072-31.31-3.755-62.684-10.054-93.503
			c-5.576-27.284-15.375-61.425-41.694-75.81c-0.543-0.296-1.395-0.295-1.818,0.235c-27.063,33.892-12.613,78.341-18.388,117.674
			c0.835-0.22,1.671-0.441,2.507-0.662c-24.583-30.105-65.032-33.972-99.671-45.391c0.299,0.734,0.598,1.469,0.896,2.203
			c12.755-25.408,27.959-49.709,45.206-72.307c16.605-21.757,36.664-44.951,62.267-56.167c-0.735-0.565-1.469-1.129-2.204-1.694
			c-6.176,17.986-18.359,32.411-35.314,41.107c0.734,0.299,1.469,0.598,2.203,0.896c-5.49-23.106,1.956-51.646,23.313-64.313
			c-0.734-0.565-1.469-1.129-2.203-1.694c-2.403,6.948-5.762,13.26-11.76,17.717c-5.095,3.786-11.361,5.909-17.196,8.238
			c0.633,0.482,1.266,0.964,1.899,1.446c-2.74-24.828-7.417-63.832,20.26-76.712c-0.606-0.079-1.212-0.157-1.818-0.235
			c14.511,17.977,14.536,43.242,8.615,64.547c0.964,0,1.928,0,2.893,0c-5.916-24.312-5.916-49.898,0-74.21
			c-0.914,0.119-1.828,0.239-2.742,0.358c9.105,18.678,9.271,41.579,8.046,61.875c-1.202,19.909-4.375,41.865-14.047,59.625
			c0.684-0.18,1.368-0.359,2.053-0.539c-27.07-18.492-41.353-59.94-32.314-91.315c-0.615,0.349-1.23,0.698-1.845,1.047
			c21.687,8.568,28.376,36.605,8.643,51.264c0.684,0.18,1.368,0.359,2.052,0.539c-13.336-19.246-13.737-53.689,8.462-66.955
			c-0.684-0.18-1.368-0.359-2.052-0.538c14.739,30.093,14.996,66.852,2.85,97.854C775.47,245.21,778.372,245.984,779.069,244.205
			L779.069,244.205z"/>
	</g>
</g>
<g>
	<g>
		<path d="M1794.211,624.839c3.759-65.575-2.231-131.118-10.146-196.173c-3.981-32.717-8.454-65.372-12.447-98.087
			c-3.296-27.012-4.214-54.251-7.71-81.238c-4.401-33.967-15.078-65.793-35.908-93.306c-0.457-0.603-1.331-1.054-2.052-0.539
			c-5.487,3.919-11.477,5.145-17.774,7.094c-6.385,1.977-11.311,6.072-15.533,11.143c0.854,0.354,1.707,0.707,2.561,1.061
			c-0.29-27.711-22.939-46.298-48.356-52.076c-26.039-5.919-55.896,1.476-71.451,24.316c0.914,0.386,1.828,0.771,2.742,1.156
			c2.319-12.467,3.24-28.004-6.833-37.511c-8.206-7.745-20.815-7.453-31.125-5.363c-14.297,2.897-27.818,10.134-39.466,18.727
			c-11.444,8.443-21.954,19.182-28.068,32.167c-0.943,2.003-1.732,4.078-2.41,6.184c0.982,0.133,1.964,0.266,2.946,0.399
			c0.006-4.524-0.537-10.244,2.561-13.941c-0.835-0.486-1.671-0.973-2.507-1.459c-4.794,18.942-12.63,59.008,17.888,59.363
			c11.739,0.137,23.469-5.017,33.811-10.047c13.516-6.574,26.234-14.793,38.5-23.441c10.898-7.684,21.459-15.877,31.611-24.522
			c14.511-12.355,29.56-24.108,45.248-34.954c12.94-8.946,27.337-18.451,43.135-21.144c13.324-2.271,23.737,4.494,30.455,15.657
			c8.722,14.492,11.843,32.432,14.378,48.887c0.263,1.709,2.946,1.247,2.946-0.399c0-7,0-14.001,0-21.002
			c0-1.266-1.661-2.043-2.561-1.061c-14.591,15.937-39.059,17.313-59.238,17.679c-11.379,0.207-22.76-0.264-34.135-0.516
			c-10.127-0.225-20.203,0.441-30.311,0.384c-46.005-0.257-92.304-3.113-137.917,4.576c-25.451,4.291-51.144,12.394-71.434,28.882
			c-0.951,0.773-0.29,2.164,0.662,2.507c50.721,18.28,105.519,22.157,159.02,22.535c54.681,0.387,109.251-3.782,163.912-4.42
			c3.5-0.041,7-0.057,10.5-0.06c1.935-0.001,1.935-2.995,0-3c-24.498-0.069-48.879-3.07-73.4-2.585
			c-22.636,0.448-47.416,3.425-65.674,18.027c-0.619,0.495-0.557,1.615,0,2.121c41.2,37.443,102.312,33.454,153.677,42.39
			c0.133-0.982,0.266-1.964,0.399-2.946c-39.485,3.063-79.108-0.01-118.632-0.383c-37.978-0.358-76.99,1.625-112.79,15.438
			c-0.95,0.367-1.609,1.709-0.662,2.507c11.965,10.081,27.538,14.847,42.597,18.005c19.815,4.155,40.246,5.322,60.442,5.632
			c40.49,0.623,80.935-3.122,121.157-7.363c2.629-0.277,5.258-0.556,7.887-0.833c1.926-0.203,1.935-2.807,0-3
			c-36.64-3.66-73.404-6.733-110.261-5.97c-34.795,0.721-72.453,4.152-103.518,21.176c-1.206,0.661-0.813,2.338,0.358,2.742
			c63.562,21.903,132.813,9.16,198.418,9.055c1.935-0.003,1.935-2.999,0-3c-71.146-0.056-161.1-10.061-214.082,48.444
			c-0.792,0.875-0.419,2.12,0.662,2.507c18.879,6.768,39.087,9.235,59.024,10.196c23.85,1.149,47.815-0.293,71.513-3.017
			c43.162-4.961,87.552-13.834,127.685-30.924c0.32-0.136,0.64-0.272,0.959-0.409c1.183-0.503,0.853-2.517-0.358-2.742
			c-34.589-6.414-70.977-7.059-105.89-3.296c-31.43,3.387-72.387,11.095-90.824,39.99c-0.557,0.873,0.027,1.884,0.896,2.203
			c50.928,18.711,106.662,6.12,159.415,9.054c-0.133-0.982-0.266-1.964-0.399-2.946c-43.384,11.143-88.395,13.701-132.318,22.023
			c-41.895,7.938-84.101,21.914-114.368,53.37c-0.552,0.573-0.606,1.556,0,2.121c25.732,24.033,65.539,26.702,98.902,26.095
			c42.883-0.78,85.601-8.739,127.317-18.183c22.209-5.026,44.239-10.777,66.27-16.527c1.37-0.357,1.499-2.619,0-2.893
			c-33.725-6.166-68.93-5.083-102.935-2.235c-41.398,3.468-82.782,10.82-122.414,23.393c-37.67,11.949-80.155,29.766-103.379,63.541
			c-0.586,0.853,0.048,1.898,0.896,2.203c46.85,16.841,98.422,16.108,147.276,10.844c52.288-5.635,103.704-17.52,154.701-30.041
			c14.621-3.591,29.224-7.255,43.855-10.806c1.718-0.417,1.23-2.841-0.399-2.946c-38.532-2.485-77.696,3.111-115.329,10.998
			c-43.749,9.169-86.918,22.77-127.342,41.943c-31.484,14.933-63.273,34.046-85.422,61.509c-0.616,0.764-0.575,1.798,0.304,2.355
			c14.305,9.083,31.607,11.779,48.254,12.468c21.453,0.886,43.026-1.937,64.121-5.581c40.475-6.992,79.681-19.232,119.804-27.737
			c-0.266-0.964-0.532-1.929-0.798-2.893c-33.527,7.262-67.377,12.819-100.751,20.829c-37.631,9.032-75.866,20.245-109.53,39.788
			c-22.607,13.124-43.968,31.656-51.792,57.442c-0.198,0.652,0.126,1.347,0.689,1.693c31.068,19.148,71.758,17.189,106.499,12.679
			c44.039-5.718,87.132-18.283,129.039-32.667c27.231-9.348,54.074-19.799,80.649-30.865c1.281-0.533,1.566-2.47,0-2.893
			c-28.599-7.726-58.969-3.947-88.057-1.779c-29.346,2.188-61.872,4.64-88.603-10.07c0.102,0.785,0.203,1.57,0.304,2.355
			c16.794-15.449,35.551-28.947,53.479-43.023c27.59-21.66,55.016-43.546,81.585-66.455c25.927-22.356,51.515-45.632,73.619-71.853
			c8.395-9.958,16.349-20.486,22.471-32.017c4.345-8.183,7.979-17.421,7.649-26.837c-0.174-4.959-1.754-10.701-5.156-14.468
			c-3.055-3.384-7.907-4.538-12.183-5.479c-6.794-1.494-13.778-2.125-20.649-3.172c-6.878-1.047-13.99-2.333-20.215-5.573
			c-6.391-3.327-10.913-11.925-14.516-17.819c-7.573-12.389-13.653-26.986-25.069-36.458c-0.354,0.854-0.707,1.707-1.061,2.561
			c13.407-1.192,30.309-7.558,32.222-22.899c1.974-15.826-17.567-19.86-29.221-19.104c-1.305,0.084-1.986,1.569-1.061,2.561
			c17.917,19.182,49.899,17.333,73.78,16.314c15.553-0.664,31.074-1.98,46.641-2.33c14.116-0.317,28.711,0.014,42.257,4.404
			c0.732,0.237,1.696-0.27,1.845-1.047c3.24-16.911,3.053-34.256,3.054-51.404c-0.367,0.482-0.734,0.964-1.101,1.446
			c46.99-9.955,95.714-11.912,143.615-11.948c-0.354-0.854-0.707-1.707-1.061-2.561c-9.241,9.094-21.114,15.505-32.174,22.08
			c-11.796,7.013-23.848,13.891-34.439,22.685c-6.814,5.658-14.705,13.813-13.427,23.471c1.631,12.329,16.501,19.554,26.339,24.129
			c0.934,0.434,1.838,0.064,2.203-0.896c7.452-19.6,16.549-49.642-9.412-58.921c-10.339-3.696-21.997-3.85-32.835-4.419
			c-14.35-0.754-28.725-1.447-42.809-4.512c-0.133,0.982-0.266,1.964-0.399,2.946c37.306-2.923,73.702-9.713,108.41-24.056
			c-0.615-0.349-1.23-0.698-1.845-1.047c8.467,26.384,2.649,54.35,9.001,81.008c0.349-0.615,0.698-1.23,1.047-1.845
			c-100.517,30.14-208.003,8.751-309.031,36.003c-1.679,0.453-1.264,2.869,0.399,2.946c37.279,1.733,74.383,6.092,111.688,7.6
			c40.807,1.65,83.558,1.809,123.105-9.714c28.917-8.425,72.378-33.974,55.554-69.786c-3.938-8.384-9.7-15.868-14.692-23.629
			c-5.868-9.122-10.786-18.741-13.182-29.382c-3.185-14.142-0.906-29.382-2.14-43.75c-0.657-7.655-2.204-18.441-10.397-21.733
			c-12.386-4.977-28.354,7.118-37.671,13.581c-0.566,0.393-0.866,1.001-0.689,1.694c3.587,14.01,10.403,27.634,17.911,39.911
			c5.976,9.772,15.309,24.384,28.063,25.381c5.458,0.427,9.815-3.362,12.845-7.458c2.378-3.215,3.957-7.002,5.374-10.714
			c1.466-3.838,3.21-7.675,2.44-11.828c-1.42-7.66-10.048-12.924-14.09-19.114c-2.937-4.498-1.481-9.576-0.327-14.463
			c1.591-6.734,4.594-13.059,8.045-19.019c8.811-15.216,21.878-27.838,35.254-39.04c1.162-0.973-0.075-2.951-1.459-2.507
			c-10.928,3.507-21.4,8.024-31.512,13.444c-7.698,4.127-15.09,8.988-23.18,12.342c-20.259,8.399-40.957-3.388-58.164-13.634
			c-1.296-0.771-2.815,0.759-2.053,2.052c22.127,37.521,57.742,65.796,77.387,104.99c3.848,7.676,7.227,16.666,6.479,25.399
			c-0.858,10.029-8.225,19.35-13.672,27.376c-4.373,6.442-10.39,14.003-11.042,22.088c-0.562,6.962,4.31,13.326,10.683,15.795
			c7.886,3.055,16.635,1.97,24.88,1.627c3.868-0.161,7.802-0.213,11.569,0.792c4.032,1.076,6.39,4.704,8.254,8.182
			c4.347,8.109,4.512,18.159,4.154,27.116c-0.44,11.017-2.431,21.952-4.56,32.747c-3.824,19.386-8.355,38.24-9.584,58.001
			c-1.99,32.014,3.752,63.918,3.879,95.911c0.022,5.761-0.208,11.519-0.622,17.264c0.5-0.5,1-1,1.5-1.5
			c-30.798,3.446-48.214-24.308-58.233-49.356c-12.734-31.839-18.281-66.296-24.458-99.854
			c-3.107-16.881-5.533-34.655-11.873-50.708c-0.517-1.31-2.467-1.542-2.893,0c-11.386,41.256-16.955,84.648-19.407,127.299
			c-1.286,22.375-1.45,44.955,1.038,67.254c2.218,19.883,6.729,39.809,21.135,54.667c12.031,12.407,27.694,10.587,40.208,0.1
			c16.988-14.236,25.779-36.741,31.068-57.626c12.207-48.204,9.309-100.328,3.911-149.291c-0.932,0.252-1.863,0.505-2.795,0.757
			c15.366,28.066,33.592,54.491,48.493,82.808c14.892,28.299,23.177,58.383,23.31,90.453c0.008,1.935,3.008,1.935,3,0
			c-0.129-31.095-7.807-60.344-21.711-88.062c-14.998-29.897-34.445-57.386-50.5-86.713c-0.681-1.243-2.963-0.762-2.795,0.757
			c5.483,49.732,8.235,102.426-4.523,151.291c-5.553,21.271-15.836,45.748-35.433,57.731
			c-21.081,12.891-39.352-10.787-44.989-29.187c-4.977-16.244-6.379-33.563-7.028-50.455c-0.773-20.105,0.1-40.271,1.704-60.314
			c2.972-37.131,8.283-74.709,18.208-110.671c-0.964,0-1.928,0-2.893,0c4.433,11.226,6.642,23.359,8.947,35.159
			c3.157,16.157,5.923,32.388,9.148,48.531c6.306,31.567,13.393,65.818,31.551,93.017c10.961,16.418,27.444,27.693,47.809,25.415
			c0.86-0.097,1.436-0.612,1.5-1.5c2.305-32.047-3.042-63.904-3.593-95.911c-0.202-11.697,0.129-23.646,1.925-35.228
			c1.568-10.122,3.899-20.125,6.017-30.142c4.081-19.307,8.896-40.038,5.666-59.819c-1.055-6.464-3.798-14.728-9.309-18.827
			c-5.797-4.312-14.231-3.228-20.979-2.89c-8.639,0.433-19.012,1.275-25.394-5.729c-6.932-7.608-0.169-17.563,4.307-24.474
			c5.327-8.224,11.319-16.022,15.135-25.118c3.245-7.733,2.645-15.603,0.336-23.49c-5.576-19.05-19.096-35.82-31.167-51.152
			c-14.25-18.1-29.768-35.232-43.232-53.943c-2.814-3.911-5.479-7.929-7.926-12.079c-0.685,0.684-1.368,1.368-2.053,2.052
			c17.156,10.216,37.66,21.764,58.096,14.836c7.892-2.676,15.066-7.305,22.293-11.355c11.115-6.228,22.636-11.434,34.778-15.331
			c-0.487-0.835-0.973-1.671-1.459-2.507c-18.137,15.189-35.999,33.439-43.28,56.516c-2.787,8.833-3.566,15.715,2.377,23.095
			c2.717,3.373,5.96,6.281,8.587,9.733c3.46,4.548,2.739,7.897,1.088,12.98c-2.195,6.756-5.952,16.339-13.706,18.258
			c-5.952,1.473-11.874-3.718-15.712-7.529c-11.481-11.398-19.28-27.309-25.328-42.12c-1.765-4.322-3.37-8.739-4.529-13.266
			c-0.229,0.565-0.459,1.129-0.689,1.694c8.828-6.125,32.274-23.638,40.454-7.896c2.848,5.48,3.125,12.36,3.432,18.391
			c0.377,7.412,0.238,14.842,0.417,22.259c0.184,7.6,0.694,15.153,2.816,22.483c2.811,9.708,7.992,18.557,13.461,26.974
			c9.851,15.159,23.193,31.324,13.407,49.887c-8.892,16.868-27.299,27.718-44.593,34.103c-18.382,6.786-38.088,9.791-57.522,11.542
			c-42.514,3.83-85.482,1.03-127.935-2.269c-19.228-1.494-38.448-3.357-57.717-4.252c0.133,0.982,0.266,1.964,0.399,2.946
			c101.018-27.249,208.498-5.858,309.031-36.003c0.803-0.241,1.24-1.036,1.047-1.845c-6.35-26.651-0.528-54.606-9.001-81.008
			c-0.226-0.704-1.066-1.37-1.845-1.047c-34.462,14.242-70.558,21.045-107.612,23.949c-1.601,0.125-2.147,2.566-0.399,2.946
			c12.305,2.678,24.855,3.625,37.405,4.298c11.283,0.604,22.818,0.729,33.862,3.354c8.445,2.008,15.997,6.329,18.628,15.059
			c3.994,13.252-2.291,29.236-6.934,41.451c0.734-0.299,1.469-0.598,2.203-0.896c-9.367-4.356-25.03-11.575-25.009-23.947
			c0.017-9.952,11.187-18.07,18.29-23.29c10.405-7.647,21.752-13.972,32.817-20.591c9.786-5.854,20.031-11.774,28.211-19.826
			c0.936-0.92,0.241-2.562-1.061-2.561c-48.171,0.036-97.157,2.044-144.413,12.055c-0.647,0.137-1.101,0.81-1.101,1.446
			c-0.001,16.868,0.24,33.971-2.947,50.606c0.615-0.349,1.23-0.698,1.845-1.047c-26.671-8.644-56.958-3.879-84.36-2.438
			c-14.31,0.752-28.745,1.216-43.004-0.51c-12.407-1.501-25.231-5.292-33.99-14.669c-0.354,0.854-0.707,1.707-1.061,2.561
			c10.369-0.673,26.668,1.763,26.275,15.4c-0.399,13.875-18.172,19.617-29.276,20.604c-1.16,0.103-2.17,1.641-1.061,2.561
			c17.102,14.188,21.555,38.55,38.128,53.279c6.652,5.912,18.47,6.71,26.836,7.909c8.135,1.166,19.989,1.006,26.745,6.376
			c6.505,5.17,5.753,16.54,4.002,23.558c-2.728,10.936-8.959,20.928-15.344,30.069c-18.514,26.506-42.703,49.21-66.563,70.809
			c-26.733,24.199-54.72,46.991-82.962,69.396c-23.931,18.984-49.353,36.814-71.856,57.516c-0.703,0.646-0.521,1.901,0.304,2.355
			c25.438,13.999,55.859,12.802,83.919,10.922c30.827-2.064,63.118-6.965,93.457,1.23c0-0.964,0-1.929,0-2.893
			c-35.534,14.796-71.561,28.454-108.308,39.943c-42.226,13.203-86.152,24.35-130.545,26.089
			c-25.38,0.994-52.905-1.245-75.022-14.876c0.23,0.564,0.46,1.129,0.689,1.693c10.061-33.156,42.42-53.224,72.166-66.83
			c36.307-16.607,75.689-26.241,114.599-34.512c24.344-5.175,48.892-9.354,73.215-14.622c1.892-0.409,1.088-3.292-0.798-2.893
			c-38.77,8.218-76.69,19.87-115.719,27.011c-21.017,3.845-42.392,6.625-63.795,6.301c-17.244-0.261-35.526-2.743-50.354-12.158
			c0.102,0.785,0.203,1.57,0.304,2.355c24.76-30.7,61.265-50.816,96.775-66.516c41.487-18.342,85.664-30.984,130.218-39.234
			c32.441-6.008,65.951-9.951,98.979-7.821c-0.133-0.982-0.266-1.964-0.399-2.946c-49.326,11.971-98.453,24.807-148.476,33.625
			c-51.626,9.102-105.543,14.87-157.639,6.232c-12.968-2.15-25.75-5.407-38.121-9.854c0.299,0.734,0.598,1.469,0.896,2.203
			c19.876-28.908,54.725-45.396,86.677-57.083c39.472-14.437,81.337-22.577,123.042-27.072c37.962-4.092,77.851-6.069,115.62,0.836
			c0-0.964,0-1.929,0-2.893c-36.476,9.52-73.002,18.809-110.125,25.496c-41.448,7.467-85.306,13.164-127.246,6.406
			c-18.805-3.029-38.029-9.281-52.199-22.516c0,0.707,0,1.414,0,2.121c30.68-31.885,73.524-45.227,115.906-53.137
			c42.996-8.023,87.002-10.58,129.457-21.485c1.699-0.436,1.247-2.854-0.399-2.946c-52.476-2.919-107.965,9.663-158.617-8.947
			c0.299,0.734,0.598,1.469,0.896,2.203c8.482-13.293,22.618-21.473,37.001-27.046c17.109-6.629,35.515-9.831,53.695-11.718
			c33.805-3.509,69.16-2.757,102.629,3.449c-0.119-0.914-0.239-1.828-0.358-2.742c-40.012,17.039-84.116,25.864-127.131,30.924
			c-23.257,2.735-46.747,4.011-70.157,3.076c-20.115-0.803-40.549-3.326-59.582-10.148c0.221,0.835,0.441,1.671,0.662,2.507
			c25.825-28.517,62.901-40.462,100.1-45.115c37.105-4.642,74.588-2.479,111.861-2.45c0-1,0-2,0-3
			c-65.327,0.105-134.334,12.861-197.621-8.947c0.119,0.914,0.239,1.828,0.358,2.742c31.511-17.269,69.767-20.198,105.004-20.824
			c35.841-0.636,71.633,2.468,107.261,6.027c0-1,0-2,0-3c-38.953,4.104-77.964,7.938-117.168,8.238
			c-21.268,0.163-42.688-0.667-63.705-4.113c-16.258-2.666-33.378-6.953-46.846-16.881c-0.773-0.57-1.51-1.187-2.244-1.805
			c-0.221,0.835-0.441,1.671-0.662,2.507c36.158-13.951,75.399-15.676,113.733-15.314c38.952,0.367,77.976,3.386,116.892,0.366
			c1.582-0.123,2.167-2.639,0.399-2.946c-50.695-8.819-111.699-4.67-152.354-41.618c0,0.707,0,1.414,0,2.121
			c18.738-14.986,44.78-16.984,67.843-17.211c23.078-0.227,46.047,2.584,69.11,2.649c0-1,0-2,0-3
			c-54.219,0.046-108.342,4.214-162.562,4.489c-54.617,0.277-110.563-2.706-162.806-19.91c-2.436-0.802-4.854-1.657-7.267-2.527
			c0.22,0.835,0.441,1.671,0.662,2.507c36.13-29.362,88.309-32.401,132.853-33.247c22.765-0.432,45.526,0.321,68.289,0.61
			c9.982,0.127,19.92-0.522,29.904-0.434c11.248,0.1,22.487,0.604,33.735,0.663c22.813,0.118,51.616-0.425,68.253-18.597
			c-0.854-0.354-1.707-0.707-2.561-1.061c0,7,0,14.001,0,21.002c0.982-0.133,1.964-0.266,2.946-0.399
			c-3.861-25.061-11.973-70.968-46.689-66.899c-14.831,1.738-28.634,10.4-40.827,18.426c-16.414,10.803-32.609,22.841-47.368,35.812
			c-16.361,14.379-113.974,94.476-124.039,43.587c-2.526-12.774,0.774-26.783,3.898-39.129c0.346-1.365-1.496-2.667-2.507-1.459
			c-3.729,4.449-3.432,10.566-3.439,16.062c-0.002,1.735,2.435,1.988,2.946,0.399c8.289-25.734,35.96-45.208,60.703-53.106
			c10.297-3.288,23.047-5.248,32.76,0.734c12.032,7.409,10.871,24.656,8.654,36.573c-0.313,1.682,1.763,2.592,2.742,1.156
			c14.901-21.88,43.282-28.238,68.063-22.938c24.121,5.159,45.879,23.022,46.153,49.184c0.013,1.215,1.687,2.11,2.561,1.061
			c4.867-5.844,10.167-9.338,17.47-11.312c5.518-1.491,10.524-3.096,15.229-6.456c-0.684-0.18-1.368-0.359-2.052-0.539
			c16.425,21.695,26.917,46.256,32.375,72.847c5.297,25.805,6.233,52.316,8.499,78.494c2.784,32.171,7.753,64.209,11.839,96.235
			c4.163,32.629,8.048,65.3,10.753,98.087c3.336,40.442,4.659,81.09,2.336,121.627
			C1791.1,626.772,1794.101,626.762,1794.211,624.839L1794.211,624.839z"/>
	</g>
</g>
<g>
	<g>
		<path d="M2767.861,491.755c-32.428-34.441-70.835-62.698-102.043-98.383c-15.397-17.605-29.039-37.308-36.644-59.589
			c-4.949-14.498-5.832-28.59-5.036-43.787c0.772-14.726,1.604-29.345-2.906-43.603c-0.437-1.381-2.503-1.481-2.893,0
			c-9.526,36.256-10.496,74.524,2.815,109.968c11.95,31.82,34.438,58.331,60.7,79.414c28.676,23.021,61.868,39.957,95.864,53.617
			c35.459,14.249,72.377,24.762,109.639,33.098c18.573,4.154,37.281,7.702,56.062,10.777c1.868,0.306,2.705-2.39,0.798-2.893
			c-32.659-8.615-64.865-19.583-95.528-33.791c-32.206-14.922-67.571-34.685-86.39-66.023c-7.667-12.768-11.135-27.549-9.054-42.355
			c0.262-1.861-2.498-2.73-2.893-0.798c-0.417,2.039-5.977,1.887-7.555,1.899c-1.485,0.012-2.057,2.041-0.757,2.795
			c14.979,8.696,32.027,13.361,48.911,16.674c20.584,4.037,41.624,5.745,62.566,6.37c40.111,1.196,81.629-1.218,120.702-10.892
			c1.227-0.304,1.515-2.145,0.358-2.741c-39.485-20.377-86.42-24.018-130.105-24.562c-47.041-0.585-94.002,3.976-140.679,9.354
			c-1.898,0.219-1.962,2.862,0,3c42.69,3.004,87.072,2.828,126.77-15.206c0.915-0.416,0.911-1.71,0.304-2.356
			c-21.98-23.385-59.186-28.305-89.47-30.672c-34.446-2.693-69.34-0.776-103.61,3.23c-1.534,0.179-2.209,2.633-0.399,2.946
			c54.576,9.435,110.41,3.119,165.416,3.054c1.643-0.002,2.111-2.715,0.399-2.946c-21.422-2.894-42.827,0.229-61.162,12.152
			c-0.918,0.597-1.023,2.017,0,2.591c45.251,25.381,101.346,15.3,150.771,15.206c1.935-0.004,1.935-3,0-3
			c-29.11,0.001-64.313-1.36-88.069,18.441c-0.749,0.624-0.481,1.908,0.304,2.356c32.03,18.288,71.164,21.035,107.254,21.556
			c38.557,0.557,76.988-3.294,115.525-3.351c1.935-0.003,1.935-2.998,0-3c-22.565-0.018-45.171-0.603-67.625,2.113
			c-18.71,2.264-40.99,6.785-53.447,22.329c-0.745,0.929-0.449,2.07,0.662,2.507c46.705,18.354,98.458,12.126,147.414,12.055
			c1.935-0.003,1.935-2.994,0-3c-22.538-0.067-44.963-3.016-67.517-1.366c-20.513,1.501-42.534,7.392-53.791,26.112
			c-0.52,0.864-0.008,1.905,0.896,2.203c31.481,10.381,65.238,14.193,98.265,14.671c32.576,0.471,67.091-2.299,97.553-14.671
			c1.585-0.644,1.334-2.77-0.398-2.946c-17.988-1.831-35.878-4.527-53.986-4.889c-16.508-0.33-34.981,1.074-48.781,11.095
			c-1.107,0.804-0.883,2.236,0.358,2.741c37.967,15.462,80.56,9.139,120.41,9.054c1.935-0.004,1.935-3,0-3
			c-31.266,0-62.554,0.054-93.757,2.283c-14.455,1.033-29.189,2.2-43.409,5.097c-13.62,2.773-26.673,7.787-40.314,10.506
			c-26.49,5.279-51.894-6.42-74.508-19.072c-22.316-12.487-43.228-27.61-66.435-38.476c-1.601-0.749-3.225-1.448-4.853-2.137
			c-0.385,0.914-0.771,1.827-1.156,2.741c9.319,3.281,17.68,8.718,27.003,12.001c1.604,0.565,2.672-1.985,1.156-2.741
			c-37.719-18.806-77.82-33.074-114.099-54.707c-16.216-9.67-31.453-21.205-43.585-35.772
			c-12.458-14.959-20.193-33.018-23.425-52.146c-2.979-17.63-2.498-36.948,1.101-54.436c3.172-15.422,10.42-30.151,22.53-40.457
			c27.542-23.436,65.343-8.384,89.653,11.851c0.606-0.785,1.212-1.57,1.817-2.356c-34.687-17.406-69.834-40.255-109.517-43.337
			c-18.158-1.41-35.833,3.832-48.289,17.518c-13.533,14.87-19.147,34.394-18.973,54.166c0.225,25.559,8.843,50.745,18.448,74.127
			c9.047,22.023,20.18,43.052,30.266,64.595c0.863-0.504,1.727-1.009,2.59-1.514c-10.713-13.897-26.573-22.14-42.9-27.692
			c-0.646-0.22-1.352,0.143-1.694,0.689c-5.539,8.851-7.512,18.927-2.977,28.627c4.281,9.158,13.726,15.485,22.804,19.175
			c20.298,8.249,48.378,8.038,63.536-9.98c0.677-0.805,0.527-2.247-0.662-2.507c-14.758-3.224-30.208-4.092-45.262-3.223
			c-14.894,0.86-31.559,3.639-43.213,13.696c-10.603,9.149-11.897,24.828-6.037,36.987c6.214,12.894,20.902,19.125,33.947,22.518
			c29.086,7.564,60.609,4.929,90.169,1.976c-0.133-0.982-0.266-1.964-0.399-2.946c-12.839,5.234-38.196,16.951-31.593,35.224
			c2.653,7.343,10.022,12.227,16.592,15.697c7.475,3.948,15.711,6.749,24.112,7.752c16.644,1.988,33.969-0.759,50.478-2.779
			c19.095-2.338,38.232-5.06,57.5-5.296c17.514-0.215,42.05,1.426,49.88,20.254c0.734-0.564,1.469-1.129,2.204-1.693
			c-31.081-22.032-69.852-33.711-106.411-42.76c-42.773-10.587-87.168-16.954-131.279-16.94
			c-27.602,0.008-60.136,1.46-84.105,16.825c-9.384,6.016-14.304,14.932-15.961,25.779c-2.29,14.984-1.579,30.337-3.535,45.393
			c-0.229,1.766,2.429,1.903,2.946,0.398c10.173-29.591,49.102-36.074,75.958-38.856c36.815-3.813,74.139-1.237,110.946,1.382
			c15.188,1.08,30.435,2.543,45.673,2.573c-0.354-0.854-0.707-1.707-1.061-2.561c-14.323,11.908-28.778,23.66-40.996,37.811
			c-10.658,12.344-22.429,29.655-16.748,46.727c2.385,7.165,6.805,16.736,14.397,19.646c5.524,2.117,10.753-2.516,13.964-6.427
			c5.048-6.149,8.332-13.73,11.328-21.029c3.078-7.498,5.817-15.008,6.98-23.049c2.042-14.111,0.792-28.384,2.064-42.541
			c0.515-5.729,1.666-11.947,5.391-16.528c4.144-5.095,11.007-6.073,17.175-6.014c19.658,0.188,37.735,9.418,49.245,25.294
			c11.239,15.502,14.021,36.101,2.971,52.422c-0.686,1.013,0.247,2.179,1.295,2.257c16.282,1.211,49.654,5.308,55.514-16.215
			c2.192-8.05,0.427-17.06-0.869-25.105c-2.047-12.705-4.383-25.315-5.14-38.188c-0.5,0.5-1,1-1.5,1.5
			c12.089,0.178,20.189,11.022,25.996,20.348c7.63,12.254,13.2,25.701,19.612,38.601c5.344,10.75,11.34,22.839,21.071,30.336
			c8.965,6.905,19.261,6.175,28.701,0.54c13.943-8.323,15.537-23.053,15.684-38.035c0.144-14.827-3.271-36.154,9.073-47.283
			c15.688-14.145,35.276,4.117,45.042,16.111c11.838,14.536,21.258,32.174,27.329,49.896c0.384,1.121,0.732,2.255,1.064,3.393
			c0.734-0.564,1.469-1.129,2.203-1.693c-3.677-2.331-9.852-5.978-10.492-10.86c-0.481-3.667,3.591-6.038,6.319-7.468
			c11.304-5.921,25.607-7.267,38.065-8.74c13.493-1.596,27.083-2.436,40.659-2.898c3.814-0.13,7.632-0.229,11.449-0.241
			c6.177-0.019,13.081-2.355,19.094-3.701c7.65-1.713,15.235-3.706,22.8-5.759c19.177-5.205,38.204-10.972,57.767-14.596
			c1.697-0.314,1.256-2.951-0.398-2.946c-15.711,0.044-31.74,2.056-46.859,6.346c-12.943,3.673-29.883,10.682-32.484,25.662
			c-2.637,15.191,9.764,26.241,22.563,31.198c14.96,5.793,32.639,6.149,48.279,3.359c11.066-1.975,20.163-7.624,27.458-16.21
			c8.179-9.627,12.236-20.624,25.345-24.619c7.386-2.251,15.19-2.588,22.586-0.39c6.309,1.875,12.028,5.299,18.1,7.772
			c13.515,5.504,25.07,2.945,36.086-6.557c1.276-1.101-0.146-2.69-1.459-2.507c-24.679,3.445-49.629,3.857-74.508,3.646
			c-12.512-0.107-25.021-0.397-37.531-0.572c-3.08-0.044-6.161-0.074-9.242-0.099c-1.17-0.01-9.173-0.904-9.297-0.811
			c2.452-1.846,4.661-3.244,6.259-5.962c0.983-1.671-1.61-3.18-2.59-1.514c-2.064,3.511-11.917,7.715-3.511,10.704
			c2.875,1.022,6.113,0.563,9.139,0.582c3.7,0.023,7.4,0.072,11.1,0.124c7.488,0.105,14.977,0.252,22.465,0.374
			c29.547,0.48,59.188,0.515,88.514-3.58c-0.486-0.836-0.973-1.671-1.459-2.507c-9.439,8.142-19.369,10.903-31.172,6.578
			c-8.596-3.15-16.282-8.252-25.437-9.825c-8.94-1.535-19.687,0.696-27.403,5.396c-6.524,3.975-10.364,10.824-14.567,16.94
			c-5.39,7.843-12.822,15.121-21.992,18.23c-7.137,2.421-14.874,3.133-22.361,3.334c-15.968,0.429-36.15-2.094-47.267-14.901
			c-5.58-6.43-7.119-16.264-2.967-23.772c4.226-7.64,13.297-11.931,21.095-14.873c16.645-6.281,35.402-8.499,53.12-8.549
			c-0.133-0.982-0.266-1.964-0.398-2.946c-29.1,5.39-57.078,15.376-86.001,21.542c-6.885,1.468-13.259,2.352-20.204,2.525
			c-5.693,0.144-11.383,0.389-17.068,0.702c-14.34,0.792-28.705,2.05-42.869,4.482c-9.544,1.64-22.588,3.46-29.744,10.764
			c-7.49,7.646,3.561,15.961,9.509,19.73c1.117,0.709,2.564-0.454,2.203-1.693c-4.81-16.489-13.414-32.384-23.092-46.476
			c-8.956-13.043-21.959-28.851-39.019-30.025c-16.083-1.107-23.982,13.58-25.685,27.297c-2.058,16.586,2.088,34.297-3.472,50.379
			c-4.012,11.6-19.32,20.427-31.213,15.883c-11.101-4.241-17.865-17.565-23.053-27.383c-6.792-12.854-12.357-26.321-19.449-39.021
			c-5.349-9.577-12.303-20.673-22.92-25.022c-2.746-1.125-5.598-1.696-8.564-1.74c-0.782-0.012-1.547,0.691-1.5,1.5
			c0.668,11.371,2.467,22.589,4.38,33.805c1.433,8.396,3.231,17.113,2.311,25.665c-2.447,22.734-37.935,18.173-53.195,17.038
			c0.432,0.752,0.864,1.505,1.295,2.257c11.767-17.381,8.561-38.84-2.972-55.45c-11.938-17.194-31.206-26.099-51.835-26.779
			c-6.615-0.219-13.441,1.192-18.352,5.869c-4.459,4.246-6.041,10.75-6.86,16.617c-2.442,17.486,0.151,35.197-3.731,52.587
			c-1.343,6.013-4.216,12.153-6.619,17.799c-2.761,6.488-5.956,13.118-10.605,18.481c-12.605,14.542-23.801-11.584-23.625-22.386
			c0.265-16.257,13.646-31.127,24.206-42.135c10.563-11.01,22.443-20.571,34.152-30.307c1.044-0.868,0.159-2.558-1.061-2.561
			c-31.123-0.063-62.237-4.186-93.34-5.311c-34.791-1.259-72.403-1.795-105.622,10.135c-15.874,5.702-30.811,15.707-36.508,32.28
			c0.982,0.133,1.964,0.266,2.946,0.398c1.334-10.268,1.853-20.572,2.335-30.906c0.35-7.505,0.695-15.156,3.117-22.331
			c5.472-16.207,24.957-22.674,39.972-26.296c38.797-9.359,81.133-6.05,120.282-0.946c32.852,4.283,65.466,11.279,97.095,21.15
			c25.695,8.02,51.871,17.953,73.976,33.622c1.021,0.724,2.704-0.49,2.204-1.693c-5.284-12.706-17.415-18.482-30.318-20.857
			c-17.396-3.202-35.655-1.384-53.095,0.477c-18.784,2.004-37.479,5.01-56.344,6.189c-17.812,1.114-34.567-0.899-49.763-11.217
			c-6.8-4.617-12.344-12.148-8.754-20.512c4.719-10.995,18.958-17.063,29.21-21.242c1.426-0.581,1.432-3.129-0.399-2.946
			c-31.069,3.104-64.755,6.061-94.992-3.48c-14.466-4.564-27.831-13.946-29.452-30.113c-1.76-17.544,11.543-27.523,26.857-31.978
			c21.102-6.136,45.857-5.148,67.186-0.489c-0.22-0.836-0.441-1.671-0.662-2.507c-13.901,16.525-39.01,16.97-57.957,10.243
			c-8.87-3.148-17.52-8.621-22.548-16.755c-5.531-8.947-3.458-19.189,1.852-27.675c-0.564,0.23-1.129,0.46-1.694,0.689
			c15.489,5.268,30.921,13.101,41.108,26.313c1.167,1.515,3.426,0.272,2.59-1.514c-18.552-39.629-41.339-78.958-47.249-123.017
			c-2.927-21.825,0.295-42.275,12.682-60.667c11.793-17.511,31.379-23.696,51.681-22.119c20.081,1.56,39.583,9.431,57.69,17.773
			c16.719,7.703,32.714,16.813,49.157,25.065c1.442,0.724,3.195-1.209,1.817-2.356c-16.488-13.725-36.377-24.588-58.321-24.696
			c-17.701-0.087-33.891,8.519-44.647,22.375c-13.322,17.161-16.361,39.047-17.084,60.121c-0.688,20.065,2.587,40.206,11.111,58.459
			c14.072,30.137,41.96,50.371,70.378,65.876c33.235,18.134,68.894,31.362,102.752,48.242c0.385-0.914,0.771-1.827,1.156-2.741
			c-9.319-3.281-17.68-8.718-27.003-12.001c-1.594-0.562-2.721,2.079-1.156,2.741c23.244,9.829,44.057,24.772,65.768,37.453
			c20.292,11.851,43.379,24.023,67.489,24.159c13.358,0.075,26.531-4.32,39.216-7.989c14.373-4.156,28.721-6.35,43.597-7.85
			c31.214-3.147,62.653-3.488,93.998-3.555c4.907-0.011,9.814-0.01,14.722-0.01c0-1,0-2,0-3
			c-39.595,0.085-81.896,6.414-119.613-8.946c0.12,0.914,0.239,1.827,0.358,2.741c13.861-10.064,32.205-10.985,48.729-10.655
			c17.604,0.352,35.036,3.08,52.524,4.859c-0.133-0.982-0.266-1.964-0.398-2.946c-29.854,12.125-63.297,14.79-95.218,14.58
			c-33.246-0.22-67.33-4.136-99.005-14.58c0.299,0.734,0.598,1.469,0.896,2.203c11.432-19.012,34.423-23.675,54.978-24.874
			c21.28-1.24,42.476,1.551,63.739,1.614c0-1,0-2,0-3c-48.701,0.07-100.157,6.309-146.616-11.947
			c0.22,0.836,0.441,1.671,0.662,2.507c12.813-15.988,36.17-19.825,55.323-21.909c21.126-2.298,42.42-1.671,63.628-1.654
			c0-1,0-2,0-3c-37.026,0.054-73.956,3.552-110.997,3.393c-36.925-0.159-77.459-2.457-110.269-21.189
			c0.102,0.786,0.203,1.571,0.304,2.356c23.024-19.19,57.768-17.561,85.948-17.563c0-1,0-2,0-3
			c-24.952,0.047-49.86,2.047-74.82,1.562c-25.494-0.496-51.863-3.696-74.438-16.358c0,0.864,0,1.727,0,2.591
			c17.618-11.457,38.235-14.635,58.85-11.851c0.133-0.982,0.266-1.964,0.399-2.946c-54.711,0.065-110.336,6.438-164.618-2.946
			c-0.133,0.982-0.266,1.964-0.399,2.946c33.011-3.859,66.457-5.618,99.656-3.51c17.525,1.113,35.082,3.473,51.981,8.352
			c14.428,4.166,28.886,10.619,39.321,21.721c0.101-0.785,0.202-1.57,0.304-2.356c-39.164,17.792-83.164,17.759-125.256,14.797
			c0,1,0,2,0,3c45.188-5.207,90.565-9.523,136.097-9.389c44.529,0.131,92.894,3.4,133.173,24.186
			c0.119-0.914,0.239-1.827,0.358-2.741c-37.967,9.4-78.091,11.695-117.073,10.856c-21.215-0.456-42.477-2.204-63.351-6.097
			c-17.04-3.178-34.356-7.851-49.444-16.61c-0.252,0.932-0.504,1.864-0.757,2.795c3.18-0.025,9.625-0.08,10.447-4.102
			c-0.964-0.266-1.929-0.532-2.893-0.798c-4.646,33.042,16.785,60.165,41.571,79.24c29.937,23.039,65.476,38.447,100.866,51.018
			c16.643,5.911,33.552,11.098,50.629,15.603c0.266-0.964,0.532-1.929,0.798-2.893c-73.476-12.032-148.084-30.687-213.925-66.379
			c-31.506-17.079-61.302-38.894-83.254-67.527c-21.611-28.189-33.091-62.209-33.046-97.716c0.022-17.425,2.82-34.74,7.24-51.562
			c-0.964,0-1.929,0-2.893,0c4.8,15.176,3.376,30.776,2.617,46.405c-0.695,14.306,0.848,27.377,5.324,40.984
			c7.055,21.448,20.144,40.451,34.563,57.588c31.199,37.079,70.752,65.74,104.016,100.772c0.293,0.312,0.587,0.624,0.881,0.936
			C2767.069,495.287,2769.186,493.162,2767.861,491.755L2767.861,491.755z"/>
	</g>
</g>
<g>
	<g>
		<path d="M3330.857,503.316c-62.714-0.07-125.553-7.051-188.171-0.819c-29.571,2.942-58.378,10.404-87.356,16.7
			c-29.508,6.41-59.221,12.576-89.474,13.869c-22.55,0.964-45.229-1.347-66.643-8.694c-1.835-0.63-2.616,2.269-0.798,2.893
			c55.79,19.144,115.815,3.863,171.393-8.145c14.606-3.156,29.129-6.833,43.823-9.55c15.738-2.909,31.687-4.569,47.65-5.577
			c31.361-1.979,62.838-0.964,94.209,0.226c25.114,0.952,50.228,2.069,75.366,2.098
			C3332.792,506.318,3332.792,503.318,3330.857,503.316L3330.857,503.316z"/>
	</g>
</g>
<g>
	<g>
		<path d="M2902.213,665.387c-31.702-4.917-63.075-11.66-94.259-19.151c-11.847-2.846-23.399-5.756-34.77-10.15
			c-10.685-4.129-21.212-8.656-31.851-12.901c-19.427-7.752-41.152-16.79-62.501-15.521c-19.519,1.161-33.019,14.025-43.875,29.062
			c-5.781,8.008-11.013,16.414-17.593,23.814c-6.727,7.565-15.129,12.575-24.413,16.413c-20.507,8.48-43.374,10.505-65.331,11.285
			c-48.307,1.715-96.786-5.33-145.015-0.86c-5.104,0.474-10.19,1.153-15.244,2.013c-1.904,0.324-1.094,3.215,0.798,2.893
			c22.629-3.849,45.819-3.556,68.688-2.939c24.923,0.672,49.823,2.148,74.762,2.156c22.472,0.006,45.303-1.111,67.155-6.727
			c18.509-4.757,34.325-13.17,46.011-28.532c11.913-15.661,21.488-35.201,40.916-42.717c20.183-7.808,43.553,0.855,62.675,7.871
			c20.823,7.639,41.012,18.396,62.589,23.769c30.859,7.682,61.882,14.753,93.206,20.274c5.741,1.013,11.494,1.949,17.254,2.843
			C2903.308,668.573,2904.12,665.683,2902.213,665.387L2902.213,665.387z"/>
	</g>
</g>
<g>
	<g>
		<path d="M2635.187,554.375c-24.649-4.493-47.509-14.893-71.272-22.417c-21.065-6.67-44.209-10.323-65.152-1.179
			c-17.855,7.797-31.6,21.656-48.02,31.718c-18.718,11.471-38.901,8.399-58.58,0.879c-1.811-0.692-2.586,2.209-0.798,2.893
			c17.846,6.82,36.658,10.434,54.617,2.2c16.354-7.498,29.378-21.221,44.865-30.296c22.5-13.184,46.706-11.073,70.785-3.782
			c24.375,7.381,47.563,18.285,72.757,22.877C2636.28,557.612,2637.088,554.722,2635.187,554.375L2635.187,554.375z"/>
	</g>
</g>
<g>
	<g>
		<path d="M2820.05,365.098c17.458,11.125,38.116,16.182,58.428,18.9c23.872,3.194,48.019,3.417,72.063,3.048
			c22.358-0.343,44.721-1.478,67.086-1.092c13.217,0.228,26.322,0.838,39.547,0.11c13.973-0.77,27.872-2.657,41.626-5.202
			c42.294-7.827,82.915-22.729,124.445-33.615c1.679-0.44,1.267-2.883-0.398-2.946c-47.912-1.813-95.647-6.68-143.622-7.12
			c-45.271-0.415-94.112,1.458-135.901,20.75c-1.097,0.506-2.18,1.041-3.262,1.576c-1.041,0.515-0.909,2.042,0,2.591
			c32.822,19.813,74.286,24.293,111.802,26.05c39.042,1.828,78.989-0.291,117.377-7.898c1.697-0.336,1.256-2.937-0.398-2.946
			c-10.979-0.061-22.035-1.793-32.975-2.608c-16.12-1.202-32.398-1.884-48.523-0.421c-11.841,1.075-26.088,3.138-34.896,11.961
			c-7.351,7.363-6.771,19.668-0.372,27.407c6.307,7.629,17.57,9.635,26.845,10.491c13.963,1.29,28.199-0.393,42.002-2.464
			c14.023-2.104,27.905-5.091,41.717-8.275c9.146-2.108,18.308-4.768,27.603-6.142c1.828-0.271,1.113-2.754-0.398-2.946
			c-23.572-2.995-51.031-8.897-70.068,9.44c-0.444,0.428-0.627,1.292-0.234,1.817c15.249,20.446,45.601,26.527,69.306,29.671
			c26.804,3.555,55.935,4.51,82.403-1.979c1.422-0.349,1.449-2.561,0-2.893c-29.561-6.769-60.469-9.865-90.77-9.403
			c-16,0.244-32.233,1.712-47.67,6.107c-11.859,3.377-23.609,9.023-31.271,18.986c-0.494,0.642-0.108,1.689,0.538,2.052
			c12.45,6.995,26.577,10.493,40.55,12.897c17.07,2.937,34.462,3.944,51.76,4.177c32.64,0.438,65.749-1.955,97.864-7.922
			c1.465-0.271,1.409-2.581,0-2.893c-31.705-7.016-63.941-12.079-96.408-13.555c-32.439-1.475-66.654,0.529-96.767,13.706
			c-0.837,0.365-1.009,1.788-0.304,2.355c9.857,7.928,22.713,12.035,34.683,15.508c17.466,5.066,35.497,8.192,53.515,10.505
			c19.604,2.517,39.4,3.8,59.167,3.655c16.462-0.119,33.227-1.178,49.26-5.134c7.598-1.875,15.343-4.59,21.519-9.532
			c0.597-0.477,0.584-1.642,0-2.121c-20.611-16.918-47.546-24.62-73.418-28.89c-25.633-4.229-52.294-5.096-78.056-1.5
			c-1.364,0.19-1.355,2.136-0.358,2.741c12.162,7.396,25.818,12.263,39.381,16.382c17.264,5.244,35.018,8.915,52.861,11.522
			c17.404,2.544,35.031,3.947,52.625,3.54c14.19-0.329,29.098-1.75,42.307-7.29c1.41-0.591,1.43-2.308,0-2.893
			c-69.108-28.28-143.031-59.89-219.42-51.059c-1.189,0.138-2.127,1.585-1.061,2.561c10.225,9.356,23.521,14.879,36.493,19.244
			c17.798,5.99,36.413,9.539,54.974,12.157c39.342,5.55,79.869,6.823,119.413,2.699c15.342-1.6,31.226-3.873,45.604-9.713
			c1.428-0.579,1.413-2.309,0-2.893c-35.813-14.796-75.486-24.099-114.41-21.056c-1.332,0.104-1.949,1.541-1.061,2.561
			c9.107,10.447,24.72,12.326,37.707,13.418c15.748,1.323,31.66,0.162,47.362,2.023c1.696,0.201,2.021-2.565,0.398-2.946
			c-29.942-7.027-60.356-12.775-91.157-13.931c-29.709-1.114-62.22,2.205-87.016,20.082c-1.061,0.765-0.886,2.99,0.757,2.795
			c25.183-2.996,51.153-0.264,75.405-9.054c1.185-0.429,1.545-2.045,0.358-2.741c-16.205-9.524-35.033-13.572-53.481-16.017
			c-21.333-2.826-42.848-3.567-64.287-5.191c0.432,0.752,0.863,1.505,1.295,2.257c21.061-27.375,35.732-73.274-0.538-95.061
			c-0.752-0.452-2.065-0.075-2.203,0.896c-2.81,19.751-6.938,44.043,6.152,61.162c0.855,1.12,2.782,0.864,2.795-0.757
			c0.151-19.837,4.71-41.994,14.796-59.249c0.309-0.527,0.289-1.41-0.234-1.817c-17.297-13.457-39.898-15.375-61.066-15.441
			c-1.747-0.005-1.972,2.418-0.398,2.946c26.681,8.959,52.477,20.301,77.649,32.853c0.252-0.932,0.505-1.864,0.757-2.795
			c-12.931-0.141-27.021-3.745-35.151-14.575c-8.728-11.627-3.962-26.304,3.443-37.174c-0.932-0.252-1.863-0.504-2.795-0.757
			c1.126,19.251-4.528,38.536-16.743,53.573c-12.889,15.865-32.301,23.826-52.558,22.734c-10.485-0.565-21.913-3.391-30.699-9.314
			c-6.275-4.231-9.034-10.877-9.46-18.216c-0.428-7.375,0.92-14.843,1.685-22.156c0.944-9.03,1.124-18.029-0.289-27.02
			c-0.101-0.644-0.837-1.108-1.446-1.101c-11.369,0.127-21.531,3.097-28.298,12.744c-0.532,0.759-0.013,2.029,0.896,2.203
			c16.91,3.24,34.255,3.053,51.403,3.054c-0.133-0.982-0.266-1.964-0.398-2.946c-8.259,1.978-17.84,3.21-25.5-1.344
			c-8.21-4.882-7.545-15.813-5.658-23.813c-0.964-0.266-1.929-0.532-2.893-0.798c-2.953,13.044-5.344,26.232-8.673,39.188
			c-2.272,8.842-5.14,18.195-11.536,24.991c-6.377,6.775-15.821,9.001-24.756,9.821c-16.31,1.497-33.068-0.835-49.2-3.041
			c0.367,0.482,0.734,0.964,1.101,1.446c2.053-21.302,16.572-39.65,24.584-58.947c3.884-9.355,6.782-19.189,6.095-29.416
			c-0.698-10.373-5.994-19.4-13.116-26.709c-0.679-0.697-1.869-0.521-2.355,0.303c-3.422,5.792-6.694,11.797-7.729,18.525
			c-0.809,5.254,0.332,10.547,1.577,15.634c0.151,0.618,0.799,1.138,1.446,1.101c5.114-0.289,9.901-2.712,15.001-3
			c-0.354-0.854-0.707-1.707-1.061-2.561c-8.507,6.956-15.518,15.284-18.77,25.923c-2.829,9.256-1.688,19.21,0.522,28.453
			c5.385,22.514,17.564,43.028,17.808,66.697c0.932-0.252,1.864-0.505,2.795-0.757c-8.356-11.603-11.182-26.619-12.775-40.535
			c-2.134-18.629-1.55-37.567,0.015-56.215c3.23-38.492,10.946-77.831,25.309-113.795c4.287-10.735,9.39-21.997,17.22-30.662
			c1.293-1.431-0.821-3.56-2.121-2.121c-8.646,9.567-14.03,21.93-18.708,33.791c-6.774,17.174-11.628,35.115-15.594,53.124
			c-8.271,37.56-13.307,77.46-9.121,115.879c1.569,14.402,4.542,30.05,13.185,42.049c0.826,1.146,2.812,0.843,2.795-0.757
			c-0.218-21.151-9.542-40.261-15.813-60.04c-3.023-9.535-5.163-19.585-3.682-29.601c1.798-12.163,9.824-21.763,19.056-29.311
			c1.013-0.828,0.185-2.631-1.061-2.561c-5.114,0.289-9.901,2.712-15.001,3c0.482,0.367,0.964,0.734,1.446,1.101
			c-1.224-4.999-2.202-9.975-1.41-15.123c0.927-6.021,4.212-11.566,7.26-16.725c-0.785,0.101-1.57,0.202-2.355,0.303
			c34.54,35.451-14.848,75.661-18.441,112.951c-0.057,0.593,0.495,1.363,1.101,1.446c16.464,2.251,33.354,4.505,49.998,3.148
			c9.454-0.771,18.986-3.23,26.054-9.877c6.651-6.255,9.849-15.426,12.28-23.981c3.951-13.903,6.335-28.256,9.523-42.344
			c0.426-1.882-2.448-2.683-2.893-0.798c-2.125,9.01-2.42,19.464,5.287,25.943c7.976,6.704,20.262,5.132,29.561,2.905
			c1.668-0.399,1.278-2.946-0.398-2.946c-16.868-0.001-33.971,0.241-50.606-2.947c0.299,0.734,0.598,1.469,0.896,2.203
			c6.128-8.736,15.5-11.144,25.708-11.258c-0.482-0.367-0.964-0.734-1.446-1.101c1.604,10.204,0.854,20.397-0.296,30.602
			c-0.873,7.742-1.995,15.615-0.535,23.354c3.561,18.88,27.855,24.163,43.898,25.028c43.502,2.345,73.272-38.648,70.89-79.382
			c-0.089-1.523-1.946-2.003-2.795-0.757c-8.019,11.77-12.202,26.511-4.048,39.329c7.995,12.569,24.375,16.782,38.346,16.934
			c1.439,0.016,2.12-2.116,0.757-2.795c-25.4-12.665-51.442-24.114-78.366-33.154c-0.133,0.982-0.266,1.964-0.398,2.946
			c20.242,0.063,42.355,1.657,58.945,14.563c-0.078-0.606-0.156-1.212-0.234-1.817c-10.369,17.738-15.051,40.359-15.206,60.763
			c0.932-0.252,1.863-0.505,2.795-0.757c-12.568-16.437-8.549-39.869-5.85-58.85c-0.734,0.299-1.469,0.598-2.203,0.896
			c34.813,20.911,19.394,65.047-0.538,90.957c-0.758,0.985,0.302,2.182,1.295,2.257c19.826,1.502,39.708,2.255,59.465,4.577
			c19.491,2.292,39.674,6.162,56.79,16.221c0.119-0.914,0.238-1.827,0.358-2.741c-23.998,8.698-49.688,5.981-74.608,8.946
			c0.253,0.932,0.505,1.863,0.757,2.795c24.492-17.657,56.193-20.616,85.502-19.672c30.508,0.983,60.72,6.867,90.36,13.823
			c0.133-0.982,0.266-1.964,0.398-2.946c-14.37-1.703-28.956-0.917-43.386-1.746c-13.242-0.761-30.215-2.094-39.563-12.816
			c-0.354,0.854-0.707,1.707-1.061,2.561c38.691-3.024,78.012,6.24,113.613,20.948c0-0.964,0-1.929,0-2.893
			c-13.506,5.485-28.316,7.736-42.715,9.377c-19.176,2.186-38.543,2.721-57.828,2.406c-39.425-0.643-80.24-4.483-117.854-16.927
			c-12.454-4.12-25.371-9.507-35.17-18.473c-0.354,0.854-0.707,1.707-1.061,2.561c76.126-8.801,149.752,22.769,218.623,50.951
			c0-0.964,0-1.929,0-2.893c-12.66,5.31-26.703,6.682-40.297,7.147c-17.713,0.606-35.516-0.899-53.04-3.397
			c-17.454-2.487-34.766-6.186-51.678-11.168c-13.735-4.047-27.565-8.964-39.849-16.434c-0.119,0.914-0.238,1.827-0.358,2.741
			c25.245-3.523,51.343-2.502,76.461,1.501c25.267,4.026,51.987,11.612,72.095,28.117c0-0.707,0-1.414,0-2.121
			c-10.217,8.176-25.195,10.356-37.756,11.931c-18.346,2.3-37.001,2.233-55.438,1.303c-19.955-1.008-39.869-3.337-59.51-7.006
			c-16.115-3.011-32.456-6.841-47.537-13.404c-4.792-2.085-9.572-4.538-13.66-7.825c-0.102,0.785-0.202,1.57-0.304,2.355
			c29.666-12.98,63.332-14.62,95.253-13.296c32.185,1.335,64.195,6.496,95.611,13.447c0-0.964,0-1.929,0-2.893
			c-31.423,5.838-63.725,8.066-95.655,7.829c-17.091-0.127-34.236-1.166-51.122-3.876c-14.113-2.266-28.535-5.752-41.086-12.803
			c0.18,0.684,0.359,1.368,0.538,2.052c7.846-10.202,20.486-15.263,32.556-18.452c15.429-4.077,31.627-5.085,47.522-5.196
			c28.801-0.203,58.157,2.906,86.245,9.337c0-0.964,0-1.929,0-2.893c-24.635,6.038-51.589,5.313-76.606,2.496
			c-14.261-1.605-28.503-4.444-42.025-9.309c-11.066-3.981-22.512-9.876-29.69-19.501c-0.078,0.605-0.156,1.212-0.234,1.817
			c18.302-17.629,45.377-11.43,67.947-8.562c-0.133-0.982-0.266-1.964-0.398-2.946c-11.426,1.688-22.688,5.055-33.945,7.586
			c-17.031,3.83-34.229,7.219-51.629,8.824c-13.994,1.291-30.641,2.343-43.511-4.401c-10.155-5.322-14.042-19.23-5.791-28.013
			c6.198-6.596,16.486-8.729,25.028-10.123c11.561-1.886,23.437-1.946,35.116-1.65c18.063,0.457,36.092,3.62,54.128,3.72
			c-0.133-0.982-0.266-1.964-0.398-2.946c-37.702,7.471-76.803,9.422-115.146,7.854c-37.373-1.529-79.027-5.968-111.722-25.704
			c0,0.864,0,1.727,0,2.591c41.861-20.693,91.869-22.25,137.649-21.917c47.974,0.35,95.714,5.307,143.622,7.12
			c-0.133-0.982-0.266-1.964-0.398-2.946c-56.513,14.813-111.665,36.437-170.641,38.972c-12.604,0.542-25.152-0.28-37.748-0.424
			c-10.785-0.124-21.575,0.145-32.356,0.416c-24.003,0.604-48.019,1.361-72.022,0.35c-29.84-1.257-62.354-4.743-88.117-21.161
			C2819.927,361.464,2818.424,364.062,2820.05,365.098L2820.05,365.098z"/>
	</g>
</g>
<g>
	<g>
		<path d="M2803.204,197.232c64.661-9.096,130.093-4.271,195.02-1.466c27.206,1.176,54.509,2.277,81.725,0.856
			c22.665-1.184,45.265-3.447,67.886-5.238c30.361-2.404,60.897-4.249,91.348-2.544c27.018,1.513,55.458,5.915,78.918,20.242
			c0.252-0.932,0.504-1.864,0.757-2.795c-122.116,2.423-243.223-39.556-365.027-13.872c-18.929,3.991-37.462,9.731-55.414,16.925
			c-1.186,0.475-1.651,2.661,0,2.893c116.555,16.371,233.349-20.696,349.92-4.999c13.525,1.821,26.928,4.501,40.119,7.999
			c0.266-0.964,0.531-1.928,0.797-2.893c-109.25-15.928-220.46-9.088-330.432-9.055c-1.935,0-1.935,2.998,0,3
			c58.015,0.054,115.884,5.168,173.883,5.989c56.551,0.8,114.29-2.256,168.408-19.986c1.049-0.347,2.097-0.7,3.142-1.058
			c1.014-0.344,1.543-1.702,0.662-2.507c-10.292-9.413-22.618-16.596-34.828-23.194c-16.58-8.959-33.896-16.572-51.46-23.376
			c-35.596-13.789-74.155-25.555-112.605-26.427c-14.459-0.328-30.824,1.051-42.947,9.756c-0.939,0.674-0.984,1.924,0,2.591
			c15.414,10.441,33.09,17.208,50.852,22.47c21.215,6.285,43.133,10.131,65.088,12.665c42.537,4.909,87.273,5.272,129.234-4.197
			c4.72-1.065,9.393-2.333,14.007-3.785c1.273-0.4,1.448-2.021,0.358-2.742c-32.604-21.535-72.829-31.471-110.994-37.28
			c-38.62-5.877-79.869-7.855-118.184,1.125c-1.167,0.273-1.366,1.7-0.662,2.507c20.424,23.423,53.397,31.486,82.873,35.916
			c31.541,4.74,63.437,4.693,95.205,6.528c1.676,0.097,2.07-2.655,0.398-2.946c-39.327-6.856-78.484-14.487-118.18-19.001
			c-42.367-4.817-87.373-7.751-129.07,3.158c-12.723,3.329-25.149,8.392-35.934,15.994c-0.774,0.546-1.04,1.635-0.304,2.356
			c17.782,17.408,45.172,22.187,68.858,25.235c27.289,3.512,54.813,3.293,82.217,5.208c1.675,0.117,2.074-2.697,0.398-2.946
			c-38.604-5.737-77.021-12.575-115.778-17.286c-44.048-5.354-89.058-8.953-133.334-4.277c-26.388,2.787-54.26,8.778-76.075,24.713
			c-0.946,0.691-0.972,1.904,0,2.591c29.666,20.975,68.851,28.05,104.087,32.835c43.489,5.907,87.768,6.896,131.556,4.421
			c25.966-1.467,52.199-4.072,77.544-10.103c1.255-0.298,1.483-2.128,0.358-2.742c-34.129-18.6-75.012-25.507-113.122-30.24
			c-41.85-5.197-85.294-6.974-127.112-0.539c-9.465,1.457-18.887,3.496-27.948,6.625c-1.212,0.418-1.515,2.039-0.358,2.742
			c41.458,25.183,94.295,30.261,141.771,27.207c1.332-0.086,1.95-1.556,1.061-2.561c-32.338-36.527-80.821-50.529-126.241-63.02
			c-11.215-3.084-22.441-6.131-33.564-9.537c-7.88-2.413-14.567-4.842-21.169-9.821c-8.083-6.096-18.868-17.871-29.94-11.883
			c-9.554,5.167-13.581,19.489-16.615,28.916c0.982,0.133,1.964,0.266,2.946,0.399c0.088-20.049,2.899-39.964,3-60.006
			c0.01-1.969-2.814-1.887-3,0c-2.753,27.979,11.158,56.479,30.442,76.068c0.613,0.623,1.497,0.519,2.121,0
			c16.561-13.744,21.306-37.579,21.442-58.066c-0.932,0.252-1.863,0.505-2.795,0.757c6.952,14.714,21.585,31.804,39.473,31.484
			c20.162-0.36,15.46-26.484,11.273-38.641c-0.443-1.288-1.974-1.423-2.741-0.358c-18.105,25.127,1.085,66.636,27.898,77.211
			c0.478,0.188,1.119-0.034,1.459-0.386c12.718-13.106,18.259-31.072,18.441-49.065c0.02-1.953-2.868-1.909-3,0
			c-0.683,9.849-2.458,27.459,6.928,34.401c7.178,5.308,16.726-0.135,22.944-4.38c10.982-7.499,20.259-17.605,28.91-27.606
			c7.871-9.101,15.326-18.658,22.021-28.66c-0.932-0.252-1.863-0.505-2.795-0.757c0.131,18.95,6.345,44.522,29.972,43.589
			c21.761-0.859,39.253-21.774,47.831-39.832c0.762-1.603-1.018-2.86-2.355-1.817c-12.519,9.755-29.563,42.853-6.826,51.273
			c9.699,3.592,19.984-3.705,27.219-9.388c9.058-7.116,17.032-15.895,23.967-25.066c-0.863-0.505-1.727-1.01-2.59-1.515
			c-4.973,6.596-9.952,14.953-7.929,23.545c1.545,6.561,7.965,10.184,14.021,11.709c17.869,4.5,38.939-4.62,50.27-18.436
			c-0.836-0.486-1.672-0.973-2.507-1.459c-3.53,9.43-8.171,22.607-2.733,32.26c3.714,6.591,11.961,7.064,18.595,5.942
			c10.159-1.717,19.783-7.319,27.981-13.313c8.688-6.354,16.64-14.275,21.904-23.733c-0.914-0.119-1.827-0.239-2.741-0.358
			c1.993,6.536,4.987,12.359,11.354,15.435c6.689,3.231,13.375,3.832,19.034,9.229c1.399,1.334,3.523-0.784,2.121-2.121
			c-4.312-4.113-9.229-6.31-14.858-8.025c-8.242-2.512-12.217-6.979-14.759-15.315c-0.368-1.209-2.092-1.526-2.741-0.358
			c-9.026,16.212-26.746,29.86-44.584,34.87c-6,1.686-14.359,2.554-18.425-3.301c-5.78-8.327-0.338-22.183,2.744-30.413
			c0.517-1.38-1.566-2.606-2.507-1.459c-10.365,12.639-27.429,19.928-43.76,18.295c-5.896-0.589-12.717-3.116-15.121-9.005
			c-3.156-7.734,2.813-16.612,7.23-22.473c1.166-1.547-1.439-3.036-2.59-1.515c-5.578,7.378-11.921,14.223-18.764,20.439
			c-6.702,6.09-15.75,13.615-25.354,13.465c-11.671-0.182-13.521-13.408-11.369-22.093c2.319-9.364,8.195-19.04,15.838-24.996
			c-0.785-0.606-1.57-1.212-2.355-1.817c-8.108,17.068-22.896,34.728-42.536,38.07c-23.349,3.972-29.555-22.583-29.677-40.313
			c-0.011-1.552-1.984-1.968-2.795-0.757c-12.473,18.63-27.305,36.949-44.648,51.252c-5.5,4.535-15.631,12.812-23.414,9.377
			c-3.762-1.66-5.308-6.08-6.24-9.751c-1.889-7.441-1.437-15.541-0.911-23.119c-1,0-2,0-3,0
			c-0.134,13.25-3.223,26.162-10.126,37.547c-1.812,2.989-4.008,5.714-6.361,8.29c-0.966,1.058-5.21-2.06-6.047-2.582
			c-4.284-2.674-7.937-6.287-11.218-10.091c-13.379-15.514-21.442-41.385-8.456-59.409c-0.914-0.12-1.828-0.239-2.741-0.358
			c3.815,11.077,9.003,35.171-9.739,34.843c-16.149-0.283-29.306-16.838-35.524-29.998c-0.662-1.401-2.786-0.653-2.795,0.757
			c-0.131,19.747-4.593,42.69-20.563,55.945c0.707,0,1.414,0,2.121,0c-18.777-19.074-32.243-46.716-29.563-73.947c-1,0-2,0-3,0
			c-0.102,20.042-2.913,39.957-3,60.006c-0.008,1.736,2.436,1.986,2.946,0.399c2.932-9.109,6.646-22.478,15.832-27.445
			c5.504-2.977,11.753,1.158,16.138,4.293c5.447,3.895,10.358,8.482,16.086,11.988c7.445,4.557,16.833,6.363,25.118,8.773
			c46.38,13.495,96.615,23.182,134.786,54.847c5.227,4.336,10.056,9.13,14.555,14.212c0.354-0.854,0.707-1.707,1.061-2.561
			c-46.978,3.022-99.226-1.874-140.257-26.798c-0.119,0.914-0.239,1.828-0.358,2.742c16.444-5.679,33.976-7.916,51.248-9.24
			c21.546-1.653,43.235-1.425,64.796-0.196c42.861,2.444,86.916,8.583,127.426,23.315c7.688,2.796,15.215,6.057,22.401,9.973
			c0.119-0.914,0.238-1.828,0.358-2.742c-37.195,8.851-76.242,10.904-114.347,11.178c-43.959,0.316-88.549-2.603-131.513-12.31
			c-22.584-5.103-45.915-12.215-65.016-25.72c0,0.864,0,1.727,0,2.591c30.916-22.583,73.26-25.807,110.241-26.317
			c45.29-0.625,90.583,4.811,135.316,11.374c25.812,3.787,51.516,8.26,77.32,12.094c0.133-0.982,0.266-1.964,0.398-2.946
			c-25.592-1.788-51.259-1.784-76.789-4.564c-24.422-2.66-53.81-7.031-72.165-25c-0.101,0.785-0.202,1.57-0.304,2.356
			c15.135-10.669,33.174-16.01,51.24-19.14c21.556-3.734,43.672-4.063,65.482-3.265c44.331,1.623,88.295,8.87,131.878,16.735
			c10.757,1.941,21.504,3.943,32.272,5.821c0.133-0.982,0.266-1.964,0.398-2.946c-31.059-1.794-62.199-1.843-93.063-6.225
			c-29.369-4.17-62.563-12.024-82.895-35.34c-0.221,0.835-0.441,1.671-0.662,2.507c37.815-8.863,78.465-6.793,116.59-1.125
			c37.889,5.634,77.945,15.622,110.277,36.978c0.119-0.914,0.238-1.828,0.358-2.742c-39.967,12.568-84.318,12.67-125.698,9.482
			c-23.104-1.78-46.125-5.24-68.627-10.804c-19.285-4.769-38.489-11.217-55.732-21.223c-2.324-1.349-4.588-2.8-6.813-4.307
			c0,0.864,0,1.727,0,2.591c11.252-8.08,26.046-9.412,39.48-9.372c18.567,0.055,37.096,3.473,55.092,7.794
			c38.492,9.243,76.439,23.67,111.216,42.602c11.363,6.186,22.829,12.977,32.418,21.747c0.221-0.835,0.441-1.671,0.662-2.507
			c-54.79,18.616-113.333,21.664-170.753,20.937c-58.002-0.734-115.866-5.935-173.883-5.989c0,1,0,2,0,3
			c109.682-0.033,220.671-6.938,329.635,8.947c1.858,0.271,2.717-2.384,0.797-2.893c-55.806-14.799-114.109-13.263-171.199-9.034
			c-58.756,4.353-117.503,11.978-176.532,9.745c-14.152-0.535-28.283-1.742-42.308-3.711c0,0.964,0,1.928,0,2.893
			c59.299-23.763,122.748-28.065,185.925-23.769c61.229,4.163,121.725,15.471,182.964,19.55c16.892,1.125,33.826,1.609,50.754,1.273
			c1.499-0.03,2.038-2.013,0.757-2.795c-36.842-22.499-84.732-22.375-126.429-20.887c-45.167,1.611-90.141,8.596-135.354,8.681
			c-85.174,0.16-170.537-11.887-255.424,0.054C2800.497,194.608,2801.313,197.498,2803.204,197.232L2803.204,197.232z"/>
	</g>
</g>
<g>
	<g>
		<path d="M3120.836,518.318c1.935,0,1.935-3,0-3S3118.901,518.318,3120.836,518.318L3120.836,518.318z"/>
	</g>
</g>
<g>
	<g>
		<path d="M3081.832,542.32c20.306-0.944,39.541-8.238,57.471-17.411c21.401-10.95,41.184-24.933,60.529-39.118
			c20.026-14.687,39.594-29.998,59.916-44.278c17.934-12.601,36.898-25.31,57.648-32.764c32.938-11.833,67.55-20.558,102.586-22.521
			c35.064-1.964,72.877,4.054,98.834,29.64c0.102-0.785,0.202-1.57,0.304-2.355c-19.835,13.39-36.577,31.136-55.593,45.637
			c-4.093,3.121-8.307,6.123-12.798,8.646c-5.384,3.025-10.786,3.296-16.893,2.43c-16.777-2.38-31.735-11.604-48.974-11.913
			c-1.936-0.035-1.933,2.965,0,3c17.564,0.315,32.828,10.174,50.04,12.067c11.293,1.243,18.674-3.243,27.518-9.684
			c20.245-14.746,37.458-33.582,58.213-47.594c0.79-0.532,1.027-1.643,0.304-2.355c-31.434-30.985-78.594-33.904-120.094-28.787
			c-41.274,5.088-83.644,16.784-119.291,38.546c-34.684,21.173-65.81,47.691-99,71.036c-29.515,20.76-63.535,43.049-100.721,44.778
			C3079.906,539.41,3079.897,542.41,3081.832,542.32L3081.832,542.32z"/>
	</g>
</g>
<g>
	<g>
		<path d="M2740.556,491.521c-10.533-7.663-22.502-13.354-34.402-18.532c-15.978-6.952-32.482-12.688-49.2-17.578
			c-35.479-10.379-73.45-17.7-110.554-15c-25.147,1.83-53.236,9.81-65.922,33.646c-0.909,1.707,1.681,3.222,2.59,1.514
			c15.193-28.545,52.176-33.039,81.186-32.658c38.047,0.5,76.219,9.539,112.082,21.778c21.533,7.35,44.159,15.927,62.707,29.42
			C2740.608,495.251,2742.104,492.646,2740.556,491.521L2740.556,491.521z"/>
	</g>
</g>
<g>
	<g>
		<path d="M4143.412,217.793c0,7.153,0,14.306,0,21.459c0,1.935,3,1.935,3,0c0-4.153,0-8.306,0-12.458
			c0-1.645-2.69-2.108-2.946-0.399c-14.911,99.507-9.11,200.308-6.055,300.429c1,0,2,0,3,0
			c-6.62-57.471-13.468-119.111,19.524-170.263c15.96-24.746,39.857-41.112,60.49-61.454c13.104-12.92,25.002-29.944,14.025-47.977
			c-6.851-11.255-19.424-19.394-30.625-25.687c-8.217-4.615-17.248-7.762-26.332-10.157c-21.357-5.631-44.043-6.545-65.937-4.254
			c-39.461,4.129-86.69,22.151-97.966,64.499c-4.956,18.614-3.028,38.162,11.063,52.212c13.194,13.155,32.746,18.877,50.314,23.271
			c20.5,5.127,42.725,7.042,61.902,16.366c8.971,4.362,16.688,11.111,19.147,21.074c2.308,9.353-0.729,19.501-3.863,28.281
			c-4.456,12.487-10.726,24.335-16.647,36.169c-0.939,1.878-8.766,19.271-9.816,18.906c-8.779-3.038-17.929-7.632-24.723-14.056
			c-0.354,0.854-0.707,1.707-1.061,2.561c155.264-20.266,311.996-21.297,468.322-21.1c26.91,0.033,53.821,0.096,80.732,0.098
			c1.961,0,1.899-2.84,0-3c-159.244-13.407-319.063-16.878-478.7-22.762c-53.474-1.971-106.938-4.242-160.364-7.241c0,1,0,2,0,3
			c157.502-3.345,315.003,1.738,472.494,3.206c123.579,1.152,247.299,0.021,370.59-9.207c1.906-0.143,1.956-3,0-3
			c-156.317-0.043-312.652-8.492-468.944-2.2c-28.734,1.157-57.447,2.869-86.11,5.2c-1.203,0.098-1.775,1.183-1.295,2.257
			c8.443,18.885,27.5,23.436,46.175,26.549c9.774,1.63,19.836,3.066,28.821,7.477c10.344,5.076,15.766,14.6,17.861,25.622
			c0.311,1.632,2.392,1.212,2.893,0c11.38-27.505,7.512-60.927,29.83-83.429c9.579-9.657,22.969-14.387,32.791-23.919
			c8.166-7.924,15.825-17.629,18.896-28.763c4.842-17.556-8.837-30.298-23.212-37.369c-20.274-9.973-44.147-13.065-66.464-14.171
			c-24.321-1.205-49.478,1.6-71.926,11.48c-15.565,6.851-31.58,20.149-26.619,38.978c3.023,11.473,12.729,20.667,21.521,27.943
			c12.365,10.235,26.153,18.952,41.054,24.95c28.676,11.544,60.713,11.107,90.85,6.963c26.309-3.618,52.144-9.839,78.244-14.625
			c1.236-0.227,1.512-2.211,0.358-2.742c-6.767-3.113-14.29-3.92-21.36-6.151c-1.748-0.552-2.423,1.788-1.155,2.742
			c18.444,13.876,41.593,20.197,63.965,24.289c26.758,4.894,54.125,6.24,81.274,6.691c25.646,0.426,51.284-0.333,76.925-0.679
			c15.821-0.213,31.42,0.545,47.154,2.301c19.148,2.136,38.248,4.76,57.563,4.066c2.308-0.083,4.608-0.27,6.908-0.46
			c0.99-0.082,1.681-0.893,1.446-1.899c-12.162-52.155-51.334-92.744-102.338-108.386c-25.101-7.698-53.624-9.937-78.914-1.976
			c-21.226,6.681-37.777,21.846-49.488,40.392c-13.901,22.016-21.169,47.879-27.178,72.971c0.964,0,1.929,0,2.893,0
			c-21.608-72.387,82.24-95.626,133.102-95.401c34.564,0.153,94.654,9.474,97.976,53.796c0.752-0.432,1.505-0.863,2.257-1.295
			c-45.937-32.577-94.704-74.085-154.858-67.59c-28.343,3.061-55.127,15.87-79.279,30.441
			c-17.265,10.415-39.926,26.648-38.247,49.48c1.236,16.826,15.384,27.227,29.564,33.359c16.701,7.223,35.136,10.188,53.096,12.249
			c45.878,5.266,92.604,3.098,138.587,0.478c27.734-1.58,55.589-4.564,83.385-4.616c0-1,0-2,0-3
			c-79.934,3.118-159.919,4.627-239.908,5.352c-39.715,0.358-79.431,0.515-119.146,0.589c-39.093,0.073-78.455-1.305-117.484,1.071
			c-79.562,4.842-158.029,20.41-237.533,25.991c-1.914,0.135-1.95,2.947,0,3c9.25,0.25,17.902,3.054,26.604,5.947
			c0.133-0.982,0.266-1.964,0.398-2.946c-4,0-8.001,0-12.001,0c-1.824,0-1.869,2.327-0.398,2.946
			c63.816,26.868,134.798,12.23,198.816-6.001c1.49-0.424,1.368-2.416,0-2.893c-11.282-3.93-21.166-8.823-33.402-9.055c0,1,0,2,0,3
			c43.348-1.493,86.565,3.849,129.878,4.532c40.954,0.646,83.189-3.147,119.904-22.739c1.086-0.579,0.935-2.516-0.358-2.741
			c-56.004-9.789-113.315-11.829-170.029-9.104c-57.205,2.748-114.863,10.57-169.802,27.106c-1.723,0.519-1.218,2.754,0.398,2.946
			c77.58,9.241,156.279,11.852,234.023,3c1.911-0.218,1.949-2.827,0-3c-55.993-4.955-111.909-10.833-168.147-12.143
			c-55.615-1.295-114.09,0.456-167.07,19.166c-8.781,3.101-17.341,6.838-25.575,11.184c-1.26,0.664-0.756,2.303,0.358,2.741
			c43.363,17.093,92.605,16.943,138.412,13.931c46.548-3.062,92.713-10.807,138.413-19.931c1.793-0.357,1.155-2.773-0.398-2.946
			c-52.109-5.804-104.171-12.213-156.642-13.546c-27.076-0.688-54.375-0.113-81.239,3.579c-22.7,3.12-45.559,8.299-65.906,19.173
			c-1.273,0.681-0.737,2.28,0.358,2.741c44.9,18.897,96.664,18.184,144.412,15.055c1.374-0.09,2.194-2.088,0.757-2.795
			c-19.163-9.438-40.7-14.598-61.918-16.396c-17.923-1.519-40.867-0.681-53.91,13.63c-0.647,0.71-0.561,1.852,0.304,2.355
			c16.645,9.718,36.195,12.741,55.161,13.976c20.852,1.357,41.821-0.048,62.607-1.77c1.911-0.158,1.952-2.915,0-3
			c-72.709-3.154-149.787-6.943-219.421,18.056c-1.352,0.485-1.506,2.472,0,2.893c43.932,12.276,90.329,9.102,135.412,9.055
			c1.935-0.002,1.935-2.995,0-3c-29.635-0.073-59.172-3.053-88.77-4.162c-27.539-1.033-56.056-0.887-82.646,7.216
			c-1.06,0.322-1.492,1.701-0.662,2.507c14.688,14.262,35.409,18.805,55.176,20.504c21.941,1.887,44.029-0.231,65.897-2.063
			c1.564-0.131,2.182-2.699,0.398-2.946c-42.909-5.962-86.261-3.106-129.411-3.054c-1.807,0.002-1.893,2.344-0.398,2.946
			c48.115,19.406,102.812,23.394,154.163,24.014c52.288,0.63,106.582-2.989,157.027-17.629c3.574-1.037,7.118-2.178,10.638-3.385
			c1.392-0.477,1.467-2.446,0-2.893c-14.975-4.556-30.609-7.126-46.07-9.372c-20.729-3.012-41.65-4.873-62.593-5.359
			c-19.706-0.457-39.778,0.283-59.071,4.619c-12.919,2.902-27.517,8.085-34.979,19.803c-0.366,0.575-0.22,1.344,0.234,1.817
			c12.03,12.562,28.872,19.3,45.338,23.821c21.682,5.953,44.441,7.983,66.845,8.605c47.034,1.305,95.467-3.988,140.817-16.706
			c11.57-3.245,23.06-7.147,33.846-12.486c1.064-0.526,0.881-2.019,0-2.59c-17.354-11.274-39.339-13.669-59.523-14.765
			c-24.276-1.318-48.631,0.32-72.872,1.6c-25.833,1.362-51.514,0.374-77.36-0.109c-29.685-0.556-60.118,0.254-88.429,10.123
			c-1.158,0.403-1.577,2.089-0.358,2.741c16.653,8.913,35.314,13.64,53.785,17.023c23.389,4.286,47.236,6.028,70.984,6.55
			c50.306,1.104,101.568-3.416,150.473-15.528c22.553-5.586,45.877-12.941,65.306-26.047c0.947-0.639,0.984-1.959,0-2.59
			c-33.55-21.515-75.023-27.841-114.098-30.11c-41.239-2.396-82.777,0.602-123.684,5.903c-1.554,0.201-2.188,2.522-0.398,2.946
			c44.179,10.466,91.024,10.848,135.903,5.194c43.094-5.43,88.914-17.159,123.582-44.584c0.602-0.476,0.579-1.641,0-2.121
			c-12.826-10.635-30.215-15.125-46.181-18.458c-22.595-4.717-45.835-6.445-68.868-7.071c-24.179-0.658-48.441,0.234-72.5,2.729
			c-18.105,1.877-36.673,4.408-53.935,10.414c-0.889,0.309-1.435,1.334-0.896,2.203c7.31,11.824,21.471,17.529,34.223,21.292
			c19.245,5.679,39.724,7.353,59.691,7.967c42.493,1.308,87.064-2.599,127.944-14.744c9.026-2.682,18.219-5.916,26.218-10.977
			c0.892-0.563,0.902-1.583,0.304-2.355c-19.935-25.723-57.772-30.337-88.069-30.442c-1.719-0.006-2.009,2.463-0.398,2.946
			c41.718,12.532,86.579,9.105,129.411,6.055c1.605-0.114,2.143-2.575,0.398-2.946c-41.397-8.81-84.573-15.26-126.809-9.002
			c-1.281,0.189-1.46,2.2-0.358,2.741c28.64,14.063,62.451,16.545,93.86,17.06c33.171,0.544,66.636-2.195,99.314-7.906
			c1.506-0.263,1.363-2.534,0-2.893c-26.023-6.84-53.057-9.784-79.906-10.556c-26.672-0.766-54.004,0.786-79.907,7.555
			c-1.519,0.396-1.34,2.417,0,2.893c42.64,15.136,89.534,16.354,134.286,14.68c45.776-1.712,91.301-7.732,136.537-14.68
			c1.765-0.271,1.188-2.839-0.398-2.946c-28.027-1.891-56.008-4.431-84.131-3.728c-26.574,0.665-56.047,3.641-78.642,18.934
			c-0.986,0.667-0.937,1.914,0,2.59c37.967,27.428,89.043,33.469,134.456,36.537c53.847,3.637,107.914,0.879,161.749-1.525
			c19.516-0.872,39.048-1.781,58.587-1.803c1.43-0.002,2.132-2.112,0.757-2.795c-43.951-21.823-93.579-31.829-141.874-38.302
			c-56.268-7.541-113.615-9.202-170.21-4.702c-37.835,3.009-76.355,8.678-112.113,21.851c-1.357,0.5-1.498,2.449,0,2.893
			c141.915,42.03,285.539,80.154,433.97,88.476c14.48,0.812,28.977,1.313,43.477,1.587c1.67,0.031,2.076-2.604,0.398-2.946
			c-72.945-14.916-147.902-13.485-221.979-14.097c-33.797-0.278-67.4-1.751-101.124-3.838c-33.328-2.063-66.74-3.714-100.126-2.124
			c-27.608,1.314-55.39,5.074-81.618,14.058c-1.475,0.505-1.375,2.353,0,2.893c56.285,22.139,116.743,32.029,176.745,37.264
			c65.076,5.676,130.587,5.315,195.815,2.984c45.999-1.643,91.942-4.485,137.889-7.19c1.343-0.079,2.234-2.146,0.757-2.795
			c-57.087-25.094-121.941-27.875-183.387-28.977c-31.255-0.561-62.521-0.198-93.773-0.974c-31.799-0.789-63.513-3.554-95.29-4.868
			c-55.865-2.312-115.623-1.174-166.116,25.817c-1.056,0.563-0.884,1.987,0,2.59c38.817,26.48,89.339,32.355,135.099,34.468
			c55.492,2.562,111.212-2.199,166.322-8.369c52.118-5.834,103.998-12.568,156.254-17.207
			c64.419-5.717,130.596-11.238,192.076-32.63c2.841-0.989,5.659-2.042,8.47-3.113c0.941-0.358,1.621-1.723,0.662-2.507
			c-20.259-16.576-46.456-24.313-71.721-29.313c-26.058-5.158-52.82-7.092-79.354-7.131c-1.205-0.002-2.125,1.709-1.061,2.561
			c14.537,11.624,32.922,17.692,50.74,22.165c23.799,5.974,48.436,8.693,72.892,10.069c24.837,1.397,49.808,1.076,74.601-0.936
			c19.548-1.587,39.469-4.059,58.252-9.911c0.98-0.306,1.587-1.758,0.662-2.507c-14.57-11.811-31.555-20.261-48.766-27.49
			c-22.264-9.35-45.523-16.308-68.952-22.054c-49.46-12.128-100.983-18.901-151.952-18.009
			c-26.683,0.467-54.942,2.778-79.824,13.162c-1.17,0.488-1.548,1.989-0.358,2.741c17.989,11.384,38.607,18.008,59.222,22.775
			c24.992,5.78,50.67,8.548,76.242,10.058c53.838,3.179,108.235,0.292,161.682-6.622c16.432-2.126,32.814-4.72,49.045-8.058
			c1.1-0.226,1.455-1.767,0.662-2.507c-13.895-12.976-31.829-20.623-49.778-26.175c-22.803-7.052-46.669-10.557-70.362-12.935
			c-50.706-5.089-101.924-3.993-152.77-2.005c-13.396,0.523-26.786,1.151-40.182,1.671c-1.636,0.063-2.113,2.58-0.398,2.946
			c73.012,15.601,148.505,6.144,222.42,6.055c1.41-0.002,2.159-2.142,0.757-2.795c-30.935-14.43-64.676-23.048-98.242-28.655
			c-32.888-5.493-68.047-8.613-100.933-1.5c-1.255,0.271-1.486,2.153-0.358,2.741c54.93,28.662,120.508,27.231,180.774,30.209
			c1.696,0.084,2.039-2.559,0.398-2.946c-65.5-15.468-134.971-21.366-201.816-12.002c-1.534,0.215-1.331,2.532,0,2.893
			c37.697,10.205,78.205,18.093,117.41,15.056c1.533-0.119,1.988-1.916,0.757-2.795c-33.244-23.745-75.749-34.603-115.495-41.03
			c-39.809-6.439-83.409-9.142-122.684,1.875c-1.531,0.43-1.322,2.38,0,2.893c47.011,18.24,99.398,20.116,149.23,19.58
			c52.489-0.564,104.761-5.731,157.197-7.525c1.617-0.056,2.135-2.698,0.398-2.946c-42.919-6.123-86.53-11.96-129.809-6.001
			c-1.083,0.149-1.48,1.84-0.662,2.507c19.419,15.842,44.859,21.911,69.204,25.118c27.173,3.579,54.565,3.552,81.871,5.325
			c1.959,0.127,1.88-2.789,0-3c-32.313-3.62-64.503-8.392-97.067-9.037c-30.339-0.602-63.234,2.024-89.708,18.242
			c-0.885,0.541-0.917,1.605-0.304,2.355c21.944,26.827,63.346,31.338,95.501,33.661c37.536,2.713,75.028-0.166,112.58-0.218
			c1.953-0.003,1.909-2.866,0-3c-29.347-2.062-58.216-8.607-87.55-11.013c-25.863-2.121-57.197-2.834-78.527,14.452
			c-0.983,0.797-0.252,2.125,0.662,2.507c42.968,17.947,90.288,9.234,135.412,12.055c1.688,0.105,2.05-2.595,0.398-2.946
			c-23.726-5.057-47.748-8.99-72.03-9.805c-23.817-0.798-48.759,1.725-70.139,12.957c-0.813,0.427-1.026,1.741-0.304,2.355
			c25.695,21.854,62.059,26.544,94.534,28.433c35.863,2.086,71.684-0.936,107.546-0.991c1.72-0.003,2.009-2.456,0.398-2.946
			c-29.974-9.124-62.202-13.104-93.418-14.366c-16.52-0.668-33.249-0.242-49.539,2.783c-11.615,2.157-24.244,6.063-32.52,14.97
			c-0.68,0.731-0.523,1.815,0.304,2.355c23.551,15.381,51.935,19.498,79.501,20.755c29.746,1.357,59.532-1.109,89.273,0.452
			c1.732,0.091,1.986-2.479,0.398-2.946c-30.408-8.949-60.926-17.889-92.418-22.132c-28.581-3.852-59.813-3.958-85.755,10.282
			c-0.808,0.442-1.029,1.728-0.304,2.355c14.631,12.675,34,18.126,52.722,21.249c24.29,4.053,49.21,4.04,73.744,3.003
			c47.844-2.022,95.014-10.024,142.604-14.624c0.672-0.064,1.344-0.127,2.017-0.188c1.604-0.147,2.14-2.515,0.399-2.946
			c-33.234-8.246-67.237-13.474-101.4-15.741c-34.418-2.284-69.777-1.514-103.418,6.741c-1.185,0.29-1.564,2.194-0.358,2.741
			c22.318,10.121,47.005,14.269,71.282,16.195c25.529,2.026,51.772,1.221,76.888-4.043c1.21-0.253,1.54-2.21,0.358-2.741
			c-38.582-17.356-81.657-24.245-123.586-27.146c-43.049-2.979-87.556-1.382-129.594,8.992c-1.77,0.437-1.176,2.761,0.398,2.946
			c79.744,9.416,163.02,3.446,240.422-18.056c1.029-0.286,1.533-1.75,0.662-2.507c-14.689-12.761-33.404-19.848-51.967-24.831
			c-23.298-6.255-47.544-8.964-71.572-10.356c-46.127-2.674-93.434-0.403-138.946,7.799c-1.757,0.316-1.196,2.84,0.398,2.946
			c92.568,6.188,187.675,15.687,279.427-3.054c1.754-0.358,1.197-2.825-0.398-2.946c-78.848-6.003-158.041-6.007-237.023-3
			c-1.947,0.074-1.918,2.865,0,3c87.198,6.12,177.257,0.695,261.424-24.056c1.367-0.401,1.5-2.563,0-2.893
			c-44.811-9.839-91.188-11.878-136.912-9.806c-46.153,2.093-92.539,8.762-136.912,21.806c-1.437,0.422-1.427,2.466,0,2.893
			c38.006,11.373,78.667,11.769,117.919,8.759c40.463-3.103,80.651-10.568,119.901-20.759c1.724-0.447,1.223-2.811-0.398-2.946
			c-74.372-6.216-153.287-15.672-225.42,9.054c-1.269,0.435-1.586,2.637,0,2.893c58.858,9.521,120.332-2.268,177.814-15.001
			c1.751-0.388,1.199-2.813-0.398-2.946c-73.767-6.11-150.686-9.505-222.421,12.055c-1.31,0.394-1.552,2.654,0,2.893
			c59.235,9.108,119.688,0.181,177.814-12.001c1.39-0.291,1.483-2.683,0-2.893c-65.272-9.241-134.266-12.895-198.817,3
			c-1.768,0.435-1.179,2.764,0.398,2.946c52.72,6.106,106.089,6.065,159.017,3.001c1.934-0.112,1.933-2.887,0-3
			c-53.927-3.167-108.172-5.854-162.017,0c-1.879,0.204-1.977,3,0,3c55.006,0,110.012,0,165.018,0c1.954,0,1.908-2.864,0-3
			c-43.054-3.071-86.473-5.913-129.412,0.054c-1.797,0.25-1.149,2.796,0.398,2.946c31.896,3.106,63.995,2.999,96.01,3c0-1,0-2,0-3
			c-4.001,0-8.001,0-12.002,0c-1.935,0-1.935,3,0,3c4.001,0,8.001,0,12.002,0c1.935,0,1.935-3,0-3
			c-32.015-0.001-64.113,0.106-96.01-3c0.133,0.982,0.266,1.964,0.398,2.946c42.645-5.926,85.861-2.996,128.615,0.054c0-1,0-2,0-3
			c-55.006,0-110.012,0-165.018,0c0,1,0,2,0,3c53.845-5.854,108.09-3.167,162.017,0c0-1,0-2,0-3
			c-52.928,3.064-106.297,3.105-159.017-3.001c0.133,0.982,0.266,1.964,0.398,2.946c63.982-15.755,132.515-12.161,197.224-3
			c0-0.964,0-1.929,0-2.893c-57.558,12.063-117.552,21.021-176.221,12.001c0,0.964,0,1.929,0,2.893
			c71.478-21.482,148.121-18.036,221.624-11.947c-0.133-0.982-0.266-1.964-0.398-2.946
			c-56.928,12.609-117.916,24.433-176.221,15.001c0,0.964,0,1.929,0,2.893c71.871-24.635,150.52-15.14,224.623-8.946
			c-0.133-0.982-0.266-1.964-0.398-2.946c-38.395,9.968-77.575,17.171-117.12,20.492c-39.563,3.323-80.788,2.974-119.106-8.492
			c0,0.964,0,1.929,0,2.893c44.182-12.987,90.183-19.474,136.115-21.698c45.408-2.197,91.621-0.071,136.115,9.698
			c0-0.964,0-1.929,0-2.893c-83.931,24.681-173.671,30.052-260.627,23.948c0,1,0,2,0,3c78.982-3.007,158.176-3.003,237.023,3
			c-0.133-0.982-0.266-1.964-0.398-2.946c-91.461,18.681-186.358,9.115-278.63,2.946c0.133,0.982,0.266,1.964,0.398,2.946
			c43.735-7.881,88.986-9.977,133.328-7.941c24.009,1.102,48.072,3.762,71.455,9.441c19.428,4.72,39.479,11.822,54.784,25.117
			c0.221-0.836,0.441-1.671,0.662-2.507c-77.164,21.436-160.122,27.336-239.625,17.948c0.133,0.982,0.266,1.964,0.398,2.946
			c41.252-10.18,84.678-11.626,126.93-9.008c41.912,2.598,85.386,9.516,123.939,26.858c0.119-0.913,0.238-1.827,0.358-2.741
			c-23.708,4.969-48.259,5.682-72.376,4.197c-24.875-1.531-50.635-5.687-73.483-16.047c-0.119,0.914-0.238,1.827-0.358,2.741
			c32.788-8.045,67.051-8.726,100.603-6.76c34.561,2.025,69.026,7.424,102.62,15.76c0.134-0.982,0.267-1.964,0.399-2.946
			c-46.17,4.253-91.893,11.985-138.247,14.504c-25.029,1.359-50.375,1.534-75.248-1.962c-19.446-2.733-40.289-7.95-55.471-21.103
			c-0.102,0.785-0.202,1.57-0.304,2.355c26.939-14.787,59.528-13.54,89.014-9.193c29.54,4.354,58.268,12.935,86.849,21.346
			c0.133-0.982,0.266-1.964,0.398-2.946c-28.477-1.495-57,0.572-85.491-0.308c-28.228-0.872-57.643-4.732-81.77-20.489
			c0.102,0.785,0.202,1.57,0.304,2.355c8.549-9.201,21.75-12.551,33.688-14.648c16.188-2.844,32.904-2.827,49.272-2.097
			c29.95,1.337,60.841,5.377,89.599,14.13c0.133-0.982,0.266-1.964,0.398-2.946c-34.179,0.053-68.281,2.69-102.471,1.245
			c-33.034-1.396-71.277-5.515-97.488-27.808c-0.102,0.785-0.202,1.57-0.304,2.355c21.008-11.036,45.267-13.156,68.625-12.547
			c23.988,0.626,47.812,4.706,71.233,9.697c0.133-0.982,0.266-1.964,0.398-2.946c-44.859-2.804-91.901,5.894-134.615-11.947
			c0.221,0.836,0.441,1.671,0.662,2.507c21.499-17.422,53.869-15.533,79.741-13.292c28.204,2.443,55.978,8.748,84.215,10.731
			c0-1,0-2,0-3c-36.012,0.05-71.924,2.599-107.937,0.52c-19.018-1.099-38.116-3.391-56.47-8.646
			c-15.563-4.456-31.11-11.672-41.554-24.438c-0.102,0.785-0.202,1.57-0.304,2.355c27.143-16.626,60.8-18.514,91.812-17.752
			c31.331,0.771,62.354,5.474,93.45,8.957c0-1,0-2,0-3c-24.963-1.621-49.994-1.718-74.883-4.463
			c-25.696-2.834-53.531-8.346-74.071-25.102c-0.221,0.836-0.441,1.671-0.662,2.507c42.694-5.878,85.883-0.038,128.215,6.001
			c0.133-0.982,0.266-1.964,0.398-2.946c-51.151,1.75-102.139,6.626-153.332,7.473c-50.801,0.841-104.364-0.822-152.299-19.42
			c0,0.964,0,1.929,0,2.893c38.804-10.885,81.748-8.075,121.09-1.875c39.482,6.222,81.806,17.177,114.778,40.728
			c0.252-0.932,0.505-1.863,0.757-2.795c-38.984,3.021-79.123-4.8-116.613-14.948c0,0.964,0,1.929,0,2.893
			c66.283-9.285,135.294-3.33,200.223,12.002c0.133-0.982,0.266-1.964,0.398-2.946c-59.717-2.951-124.834-1.4-179.261-29.799
			c-0.119,0.914-0.238,1.827-0.358,2.741c32.379-7.003,66.959-3.772,99.338,1.501c33.266,5.417,66.896,14.065,97.526,28.352
			c0.252-0.932,0.505-1.863,0.757-2.795c-73.624,0.088-148.9,9.591-221.623-5.947c-0.133,0.982-0.266,1.964-0.398,2.946
			c46.398-1.798,92.756-4.069,139.204-2.872c26.45,0.682,52.938,2.42,79.117,6.348c22.581,3.388,45.384,8.438,66.242,17.956
			c9.579,4.371,18.692,9.929,26.407,17.133c0.221-0.836,0.441-1.671,0.662-2.507c-48.584,9.99-98.541,14.364-148.074,15.528
			c-52.441,1.232-107.168-0.751-157.63-16.357c-13.339-4.125-26.354-9.542-38.176-17.021c-0.119,0.914-0.238,1.827-0.358,2.741
			c18.004-7.514,37.689-10.449,57.016-12.008c24.161-1.948,48.525-1.263,72.664,0.646c51.37,4.063,103.045,14.059,151.638,31.376
			c22.864,8.149,46.251,18.199,65.259,33.605c0.221-0.836,0.441-1.671,0.662-2.507c-18.109,5.642-37.209,8.041-56.043,9.685
			c-24.215,2.112-48.609,2.369-72.881,1.217c-23.906-1.135-47.848-3.813-71.198-9.159c-18.587-4.255-38.325-10.27-53.444-22.358
			c-0.354,0.854-0.707,1.707-1.061,2.561c25.164,0.037,50.381,1.902,75.158,6.381c25.788,4.661,53.16,12.299,73.796,29.184
			c0.221-0.836,0.441-1.671,0.662-2.507c-61.545,23.455-128.8,29.264-193.874,35.112c-28.729,2.582-57.478,4.925-86.11,8.452
			c-23.769,2.928-47.515,6.02-71.308,8.745c-54.541,6.247-109.542,10.95-164.484,9.159c-47.201-1.538-100.051-6.972-140.134-34.314
			c0,0.863,0,1.727,0,2.59c58.28-31.153,128.346-27.675,192.259-24.016c30.904,1.77,61.725,3.581,92.686,3.891
			c32.102,0.32,64.207,0.12,96.293,1.293c51.988,1.901,106.148,6.667,154.302,27.833c0.252-0.932,0.505-1.863,0.757-2.795
			c-126.555,7.451-254.77,16.348-380.916-1.053c-43.833-6.047-87.48-15.67-128.736-31.897c0,0.964,0,1.929,0,2.893
			c62.445-21.387,131.574-14.925,196.232-10.87c72.342,4.537,144.873,1.309,217.218,5.655c30.138,1.811,60.208,5.164,89.804,11.216
			c0.133-0.982,0.266-1.964,0.398-2.946c-150.017-2.827-295.588-37.282-439.003-78.901c-12.56-3.646-25.106-7.34-37.646-11.054
			c0,0.964,0,1.929,0,2.893c46.87-17.266,98.252-22.179,147.837-23.756c57.109-1.816,114.763,2.146,170.939,12.685
			c35.269,6.617,70.844,15.901,103.11,31.922c0.252-0.932,0.505-1.863,0.757-2.795c-48.583,0.053-97.103,4.135-145.682,4.876
			c-52.867,0.806-107.742-0.103-158.88-14.985c-17.257-5.022-34.092-12.125-48.717-22.689c0,0.863,0,1.727,0,2.59
			c22.716-15.375,52.214-17.9,78.875-18.567c27.523-0.688,54.956,1.922,82.384,3.771c-0.133-0.982-0.266-1.964-0.398-2.946
			c-44.996,6.91-90.218,12.748-135.74,14.572c-44.469,1.783-91.136,0.461-133.489-14.572c0,0.964,0,1.929,0,2.893
			c25.707-6.717,52.649-8.08,79.11-7.447c26.567,0.636,53.374,3.685,79.109,10.448c0-0.964,0-1.929,0-2.893
			c-31.29,5.468-63.2,7.989-94.955,7.837c-31.92-0.153-66.785-2.388-95.909-16.688c-0.119,0.914-0.238,1.827-0.358,2.741
			c41.669-6.174,84.388,0.314,125.215,9.002c0.133-0.982,0.266-1.964,0.398-2.946c-42.561,3.031-87.163,6.505-128.614-5.947
			c-0.133,0.982-0.266,1.964-0.398,2.946c29.567,0.103,66.487,4.452,85.948,29.563c0.102-0.785,0.202-1.57,0.304-2.355
			c-13.327,8.432-29.689,12.281-44.905,15.63c-21.772,4.792-44.023,7.471-66.256,8.901c-22.509,1.448-45.211,1.425-67.655-0.956
			c-17.797-1.889-36.847-5.157-52.513-14.303c-5.014-2.927-9.57-6.764-12.644-11.734c-0.299,0.734-0.598,1.469-0.896,2.203
			c17.026-5.924,35.29-8.403,53.138-10.307c23.046-2.458,46.287-3.239,69.452-2.799c22.95,0.436,46.013,2.183,68.575,6.524
			c16.177,3.113,34.416,7.432,47.4,18.196c0-0.707,0-1.414,0-2.121c-34.507,27.297-80.359,38.526-123.193,43.923
			c-43.976,5.54-90.11,4.943-133.374-5.305c-0.133,0.982-0.266,1.964-0.398,2.946c39.772-5.155,79.986-7.951,120.09-6.091
			c39.627,1.838,82.159,8.074,116.178,29.888c0-0.863,0-1.727,0-2.59c-15.944,10.755-34.462,17.315-52.825,22.602
			c-23.607,6.796-47.946,11.069-72.305,14.058c-50.369,6.179-102.492,7.141-152.721-0.812c-20.394-3.228-41.338-8.035-59.67-17.846
			c-0.119,0.913-0.238,1.827-0.358,2.741c28.107-9.799,58.169-10.499,87.632-10.016c25.337,0.415,50.519,1.489,75.846,0.188
			c23.116-1.188,46.238-2.653,69.395-1.895c21.155,0.693,44.786,2.736,63.002,14.57c0-0.863,0-1.727,0-2.59
			c-16.993,8.41-35.699,13.343-54.137,17.415c-23.854,5.27-48.167,8.49-72.521,10.244c-24.565,1.77-49.332,1.849-73.856-0.559
			c-21.141-2.074-42.86-6.088-62.13-15.367c-7.326-3.527-14.195-8.051-19.933-13.838c0.381,0.385,1.767-1.848,2.692-2.858
			c1.207-1.317,2.579-2.495,3.992-3.583c3.133-2.41,6.688-4.244,10.29-5.839c18.845-8.344,41.138-9.294,61.42-9.567
			c22.855-0.31,45.758,1.524,68.407,4.484c17.473,2.283,35.23,5.068,52.125,10.208c0-0.964,0-1.929,0-2.893
			c-49.053,16.819-103.13,20.565-154.617,20.936c-53.121,0.382-109.294-3.241-159.607-21.607c-2.018-0.736-4.018-1.524-6.01-2.328
			c-0.133,0.982-0.266,1.964-0.398,2.946c42.86-0.053,85.991-2.976,128.614,2.946c0.133-0.982,0.266-1.964,0.398-2.946
			c-20.25,1.695-40.52,3.441-60.856,2.405c-20.451-1.042-42.871-5.185-58.096-19.968c-0.221,0.836-0.441,1.671-0.662,2.507
			c27.021-8.233,55.907-8.081,83.872-7.033c28.927,1.085,57.783,4.016,86.747,4.087c0-1,0-2,0-3
			c-44.811,0.047-90.949,3.254-134.615-8.947c0,0.964,0,1.929,0,2.893c69.391-24.912,146.161-21.092,218.624-17.948c0-1,0-2,0-3
			c-19.594,1.622-39.237,2.808-58.901,1.968c-19.57-0.835-40.184-3.74-57.354-13.764c0.102,0.785,0.203,1.57,0.304,2.355
			c12.924-14.179,35.739-14.11,53.351-12.618c20.062,1.699,40.744,6.94,58.843,15.853c0.252-0.932,0.505-1.863,0.757-2.795
			c-47.532,3.114-98.928,3.86-143.615-14.947c0.12,0.914,0.239,1.827,0.358,2.741c20.912-11.175,44.604-16.243,67.946-19.228
			c26.882-3.437,54.133-3.768,81.188-3.021c51.285,1.414,102.204,7.78,153.14,13.453c-0.133-0.982-0.266-1.964-0.398-2.946
			c-45.468,9.077-91.32,16.65-137.616,19.823c-45.523,3.12-94.539,3.156-137.615-13.823c0.12,0.914,0.239,1.827,0.358,2.741
			c48.897-25.804,107.828-29.614,162.067-30.153c58.065-0.578,115.989,4.835,173.741,10.213c7.822,0.729,15.646,1.451,23.471,2.144
			c0-1,0-2,0-3c-77.744,8.852-156.443,6.241-234.023-3c0.133,0.982,0.266,1.964,0.398,2.946
			c54.102-16.284,110.673-23.936,166.983-26.897c57.057-3.001,114.907-0.953,171.254,8.896c-0.12-0.914-0.239-1.827-0.358-2.741
			c-37.517,20.019-80.619,23.052-122.372,22.26c-41.986-0.797-83.866-5.91-125.896-4.463c-1.93,0.066-1.938,2.963,0,3
			c12.002,0.228,21.577,5.106,32.605,8.947c0-0.964,0-1.929,0-2.893c-63.569,18.103-133.853,32.681-197.223,6.001
			c-0.133,0.982-0.266,1.964-0.398,2.946c4,0,8.001,0,12.001,0c1.743,0,1.978-2.422,0.398-2.946
			c-8.967-2.982-17.886-5.798-27.401-6.055c0,1,0,2,0,3c77.987-5.475,154.971-20.33,232.965-25.695
			c38.963-2.68,78.266-1.296,117.305-1.358c39.705-0.064,79.41-0.22,119.114-0.557c81.582-0.69,163.163-2.213,244.688-5.393
			c1.926-0.075,1.941-3.004,0-3c-36.442,0.068-72.952,4.333-109.351,5.938c-45.117,1.991-91.789,3.429-136.312-5.445
			c-15.721-3.133-32.803-7.823-45.16-18.571c-8.129-7.069-12.426-18.019-10.338-28.691c2.324-11.876,12.236-21.173,21.294-28.365
			c10.203-8.101,21.809-14.441,33.345-20.408c14.553-7.526,29.643-13.752,45.632-17.475c28.945-6.739,57.739-1.787,84.313,10.803
			c29.772,14.104,56.076,35.041,82.815,54.003c0.902,0.64,2.339-0.208,2.257-1.295c-2.053-27.397-26.65-42.69-50.656-49.929
			c-32.008-9.651-67.607-8.635-100.052-1.813c-44.435,9.344-102.573,39.502-86.262,94.145c0.411,1.379,2.537,1.486,2.893,0
			c11.179-46.68,29.515-100.477,81.701-113.258c27.465-6.727,58.175-1.526,84.049,8.862c25.851,10.378,48.358,28.426,64.349,51.184
			c10.603,15.09,17.855,32.292,22.034,50.212c0.481-0.633,0.964-1.266,1.446-1.899c-35.574,2.938-70.839-6.262-106.428-5.965
			c-25.152,0.21-50.292,1.022-75.449,0.818c-28.078-0.228-56.301-1.5-84.035-6.122c-23.15-3.858-47.325-10.207-66.364-24.531
			c-0.385,0.914-0.771,1.828-1.155,2.742c6.794,2.145,14.146,2.859,20.644,5.85c0.119-0.914,0.238-1.828,0.358-2.742
			c-63.248,11.596-133.307,33.78-191.74-5.193c-17.636-11.762-51.063-36.405-30.732-60.07c7.246-8.436,18.328-13.353,28.594-16.921
			c12.572-4.37,25.9-6.573,39.143-7.509c24.304-1.717,49.945,1.017,73.233,8.18c17.129,5.269,40.615,16.688,36.214,38.396
			c-2.576,12.704-13,24.073-22.469,32.247c-10.31,8.902-23.207,13.512-32.264,24.032c-19.055,22.132-16.413,53.479-26.439,79.444
			c-0.199,0.483-0.399,0.967-0.6,1.45c0.964,0,1.929,0,2.893,0c-1.837-9.662-6.004-18.069-13.89-24.13
			c-7.307-5.617-16.863-7.805-25.726-9.488c-20.369-3.869-43.897-5.17-53.545-26.746c-0.432,0.752-0.863,1.505-1.295,2.257
			c156.018-12.689,312.671-6.118,468.944-3.729c28.701,0.438,57.405,0.721,86.11,0.729c0-1,0-2,0-3
			c-157.207,11.766-314.983,10.336-472.494,7.882c-123.516-1.925-247.063-4.505-370.59-1.882c-1.945,0.041-1.921,2.893,0,3
			c159.461,8.95,319.2,11.278,478.7,19.378c53.505,2.717,106.978,6.13,160.364,10.625c0-1,0-2,0-3
			c-156.535-0.011-313.377-2.13-469.44,12.158c-26.592,2.434-53.136,5.388-79.614,8.844c-1.196,0.156-2.115,1.563-1.061,2.561
			c7.685,7.267,17.761,11.96,27.664,15.388c0.59,0.204,1.422-0.116,1.693-0.689c10.443-21.959,24.275-43.74,30.038-67.576
			c4.384-18.129-2.237-32.722-18.614-41.571c-18.192-9.83-40.39-11.761-60.268-16.435c-18.756-4.41-39.291-10.115-53.322-24.106
			c-15.93-15.882-14.327-41.374-5.209-60.375c9.479-19.75,28.739-32.66,48.563-40.482c21.637-8.538,45.371-11.591,68.519-11.07
			c21.277,0.478,43.413,4.271,62.497,14.054c12.368,6.341,25.778,15.396,32.716,27.794c5.351,9.562,2.587,19.723-3.044,28.385
			c-6.558,10.086-16.19,18.238-25.146,26.109c-10.816,9.507-21.937,18.632-31.693,29.262c-18.897,20.588-31.529,45.692-37.307,72.98
			c-5.83,27.538-4.672,56.121-2.246,83.979c1.025,11.788,2.369,23.548,3.724,35.302c0.216,1.871,3.061,1.977,3,0
			c-3.047-99.829-8.92-200.413,5.947-299.631c-0.981-0.133-1.964-0.266-2.946-0.399c0,4.153,0,8.306,0,12.458c0,1.935,3,1.935,3,0
			c0-7.153,0-14.306,0-21.459C4146.412,215.858,4143.412,215.858,4143.412,217.793L4143.412,217.793z"/>
	</g>
</g>
<g>
	<g>
		<path d="M5751.295,206.424c6.723-12.72,13.238-26.428,15.217-40.805c0.809-5.876,0.758-12.99-3.234-17.817
			c-3.941-4.765-11.147-6.831-17.043-4.996c-6.215,1.934-9.262,8.798-11.116,14.449c-2.599,7.916-3.376,16.408-4.407,24.634
			c-1.176,9.388-3.664,17.24-8.38,25.581c-5.905,10.444-13.868,19.592-21.525,28.762c-15.417,18.463-28.501,37.271-28.638,62.251
			c-0.082,14.773,3.901,29.408,8.025,43.467c4.561,15.551,8.722,31.243,12.859,46.912c8.309,31.463,14.604,63.383,21.082,95.26
			c6.362,31.301,13.432,62.318,25.025,92.154c10.948,28.176,24.855,55.1,39.545,81.479c0.732,1.315,2.798,0.718,2.795-0.757
			c-0.06-31.941-2.927-63.787-3.572-95.713c-0.316-15.7-0.668-31.975,1.996-47.497c2.396-13.967,7.875-27.231,13.955-39.95
			c5.965-12.48,12.721-24.566,18.678-37.053c6.215-13.032,11.102-26.649,15.037-40.532c8.229-29.02,11.414-59.327,11.417-89.425
			c0.003-23.036-0.874-49.544-13.405-69.676c-6.353-10.204-15.975-16.446-27.353-19.775c-16.374-4.791-33.944-3.941-49.496-11.674
			c-1.726-0.858-3.247,1.729-1.514,2.591c23.698,11.783,56.029,4.379,73.701,27.378c12.951,16.855,14.384,41.425,14.939,61.856
			c0.847,31.146-2.035,62.418-9.757,92.636c-3.822,14.956-8.969,29.605-15.457,43.611c-5.814,12.551-12.579,24.639-18.66,37.059
			c-6.098,12.452-11.367,25.33-14.344,38.907c-3.263,14.89-2.932,30.666-2.818,45.827c0.252,33.842,3.589,67.582,3.652,101.431
			c0.932-0.252,1.863-0.505,2.795-0.757c-15.172-27.25-29.383-55.055-40.57-84.204c-11.473-29.893-18.123-61.205-24.467-92.506
			c-6.469-31.914-12.961-63.79-21.32-95.273c-4.133-15.57-8.389-31.115-12.866-46.589c-4.366-15.09-7.804-30.613-6.616-46.409
			c1.936-25.753,21.108-44.747,36.43-63.746c6.83-8.47,13.326-17.471,17.551-27.561c2.995-7.152,3.809-14.377,4.77-22.01
			c1.078-8.567,2.138-17.708,6.086-25.511c3.815-7.542,12.668-9.715,19.381-4.098c5.877,4.918,4.476,14.692,3.125,21.23
			c-1.714,8.3-4.953,16.305-8.459,23.989c-1.754,3.844-3.658,7.619-5.633,11.354
			C5747.802,206.618,5750.391,208.134,5751.295,206.424L5751.295,206.424z"/>
	</g>
</g>
<g>
</g>
<g>
</g>
<g>
</g>
<g>
</g>
<g>
</g>
<g>
</g>
<g>
</g>
<g>
</g>
<g>
</g>
<g>
</g>
<g>
</g>
<g>
</g>
<g>
</g>
<g>
</g>
<g>
</g>
</svg>
