<?xml version="1.0" encoding="UTF-8" standalone="no"?>
<!-- Created with Inkscape (http://www.inkscape.org/) -->

<svg
   xmlns:dc="http://purl.org/dc/elements/1.1/"
   xmlns:cc="http://creativecommons.org/ns#"
   xmlns:rdf="http://www.w3.org/1999/02/22-rdf-syntax-ns#"
   xmlns:svg="http://www.w3.org/2000/svg"
   xmlns="http://www.w3.org/2000/svg"
   xmlns:sodipodi="http://sodipodi.sourceforge.net/DTD/sodipodi-0.dtd"
   xmlns:inkscape="http://www.inkscape.org/namespaces/inkscape"
   width="3000"
   height="800"
   id="svg2"
   version="1.1"
   inkscape:version="0.48.4 r9939"
   sodipodi:docname="New document 1">
  <defs
     id="defs4" />
  <sodipodi:namedview
     id="base"
     pagecolor="#ffffff"
     bordercolor="#666666"
     borderopacity="1.0"
     inkscape:pageopacity="0.0"
     inkscape:pageshadow="2"
     inkscape:zoom="0.35"
     inkscape:cx="1166.4286"
     inkscape:cy="520"
     inkscape:document-units="px"
     inkscape:current-layer="layer1"
     showgrid="false"
     inkscape:window-width="1535"
     inkscape:window-height="876"
     inkscape:window-x="65"
     inkscape:window-y="24"
     inkscape:window-maximized="1" />
  <metadata
     id="metadata7">
    <rdf:RDF>
      <cc:Work
         rdf:about="">
        <dc:format>image/svg+xml</dc:format>
        <dc:type
           rdf:resource="http://purl.org/dc/dcmitype/StillImage" />
        <dc:title></dc:title>
      </cc:Work>
    </rdf:RDF>
  </metadata>
  <g
     inkscape:label="Layer 1"
     inkscape:groupmode="layer"
     id="layer1"
     transform="translate(0,-252.36218)">
    <path
       style="fill:none;stroke:#000000;stroke-width:0.97975552px;stroke-linecap:butt;stroke-linejoin:miter;stroke-opacity:1"
       d="M 5.7041635,297.69851 C 14.462396,300.24546 20.301959,307.70526 28.217163,311.62128 36.480453,315.70951 45.392546,318.4576 53.544287,322.75951 59.5128,325.90927 64.722245,330.30429 70.429036,333.89773 75.043591,336.80341 80.18216,338.92863 84.49966,342.2514 88.688251,345.47496 92.003994,349.67688 95.75616,353.38962 100.44637,357.10237 104.9692,361.03218 109.82679,364.52785 136.85853,383.98074 116.38626,367.9267 140.78216,384.01974 147.49626,388.44878 154.08508,393.07426 160.48104,397.94253 211.51564,436.78742 137.94243,382.60635 197.06466,431.3572 201.26658,434.82201 206.90199,436.28366 211.13529,439.71087 217.29564,444.69819 222.15262,451.09626 228.02004,456.41821 233.42067,461.31677 239.72428,465.21492 244.90478,470.34098 285.75907,510.76601 219.28094,453.09094 273.04603,500.9711 286.43357,512.89329 286.54973,508.50801 304.0014,520.46299 310.02506,524.58941 314.96108,530.12191 320.88615,534.38578 329.7332,540.75239 340.06554,544.88572 349.0274,551.09311 353.64017,554.28812 368.53814,567.13185 374.35452,570.585 379.75037,573.7885 385.80388,575.80135 391.23928,578.93867 397.08215,582.31121 402.28115,586.70437 408.12403,590.0769 413.55942,593.21423 419.16627,596.11812 425.00878,598.43057 459.0273,611.895 406.50938,585.8067 453.15002,606.78424 458.12943,609.02383 462.17172,613.05629 467.22065,615.13791 473.52439,617.73687 480.50163,618.39776 486.91952,620.70702 490.86201,622.12559 494.19625,624.96348 498.17602,626.27613 535.51913,638.59305 492.09339,622.15408 523.50315,629.06068 528.43436,630.145 532.7353,633.19351 537.57377,634.6298 542.15514,635.98977 547.10675,635.9177 551.64439,637.41435 555.62416,638.72701 558.92113,641.67082 562.9009,642.98347 567.43853,644.48013 572.30232,644.74133 576.97152,645.76802 600.70637,650.98702 574.24656,645.79209 605.11277,654.12169 609.72732,655.36698 614.60202,655.54628 619.18339,656.90625 639.69897,662.99626 627.36177,662.84348 650.13876,668.04447 656.60186,669.52029 663.37454,669.35322 669.83764,670.82903 675.61841,672.14904 681.05205,674.67175 686.72239,676.39814 693.24945,678.38537 700.00337,679.65799 706.42126,681.96726 710.36375,683.38582 713.66822,686.31563 717.67776,687.53636 725.94364,690.05299 734.61478,691.02999 743.00489,693.10548 749.63003,694.74437 756.1053,696.93349 762.70376,698.6746 770.17787,700.64675 777.87842,701.8233 785.21676,704.2437 791.99407,706.47907 798.13832,710.36201 804.91563,712.59737 812.25398,715.01779 820.00766,716.00678 827.42863,718.16649 835.96607,720.65111 844.21832,724.03553 852.75576,726.52015 860.17673,728.67986 867.84778,729.92957 875.26875,732.08927 883.8062,734.5739 891.98984,738.20198 900.59588,740.44294 909.84709,742.85188 919.51994,743.47863 928.73713,746.01205 936.45937,748.13458 943.56116,752.12802 951.25013,754.36572 960.26957,756.99062 996.46487,763.78459 1004.7185,765.50394 1013.1813,767.26686 1021.5149,769.66622 1030.0456,771.07306 1038.4244,772.45485 1046.9941,772.47583 1055.3728,773.85761 1063.9034,775.26445 1072.1996,777.84968 1080.6999,779.42673 1093.1762,781.74146 1113.8245,783.61038 1125.7259,784.99583 1140.7478,786.74455 1155.7432,788.70858 1170.7518,790.56495 1178.2562,791.49313 1185.7189,792.85173 1193.2649,793.3495 1199.8166,793.7817 1206.3974,793.3495 1212.9638,793.3495 1221.4061,793.3495 1229.8485,793.3495 1238.2909,793.3495 1262.68,793.3495 1287.0691,793.3495 1311.4581,793.3495 1336.7853,793.3495 1362.1124,793.3495 1387.4395,793.3495 1394.0058,793.3495 1400.5721,793.3495 1407.1383,793.3495 1415.5808,793.3495 1424.0809,794.32556 1432.4655,793.3495 1440.1478,792.4552 1447.303,788.72976 1454.9785,787.7804 1462.4249,786.85937 1470.0892,789.00113 1477.4915,787.7804 1487.1517,786.18727 1496.0295,781.32719 1505.6327,779.42673 1555.7259,769.51334 1464.6492,798.71285 1545.0304,773.85761 1551.8492,771.74915 1557.8603,767.44591 1564.7293,765.50394 1613.8022,751.63046 1557.1158,773.97056 1601.313,757.15028 1607.9808,754.61271 1614.1429,750.73857 1621.0119,748.79661 1636.3668,744.45557 1642.7638,747.74312 1657.5955,743.22749 1664.4235,741.14864 1670.517,737.10919 1677.2944,734.87382 1684.6327,732.45342 1692.3697,731.40743 1699.8074,729.30471 1705.5118,727.692 1710.8911,724.96561 1716.6921,723.7356 1724.087,722.16764 1731.7087,721.94006 1739.2051,720.95104 1747.9463,719.7978 1773.3521,715.91394 1781.4169,715.38193 1787.9687,714.94973 1794.6495,716.51106 1801.1158,715.38193 1810.7603,713.69786 1819.6314,708.81412 1829.2571,707.02826 1834.789,706.00194 1840.5261,707.39871 1846.1418,707.02826 1848.9292,706.84439 1889.8001,702.23502 1893.982,701.45915 1909.1876,698.63806 1923.8378,693.32308 1939.0079,690.32093 1994.4066,679.35762 1920.089,695.6015 1981.2199,687.53636 1987.989,686.6433 1994.2223,683.29247 2000.9187,681.96726 2008.3346,680.49966 2015.9353,680.17171 2023.4317,679.1827 2030.0065,678.31528 2036.5489,677.21222 2043.1306,676.39814 2051.5593,675.35563 2060.0574,674.8604 2068.4577,673.61359 2078.8294,672.0742 2089.0414,669.58386 2099.4131,668.04447 2176.0895,656.66387 2066.2078,675.12501 2155.6955,662.47536 2165.1656,661.13672 2174.4759,658.85628 2183.8369,656.90625 2207.4728,651.98255 2230.6698,645.56961 2254.1899,640.19892 2270.3942,636.49875 2270.1759,638.12976 2287.9595,631.84525 2294.6872,629.46773 2300.9445,625.90731 2307.6584,623.49158 2311.2931,622.18372 2315.4555,622.41851 2318.9148,620.70702 2323.1099,618.63154 2326.3548,615.05084 2330.1713,612.35335 2332.9235,610.40817 2335.6772,608.44463 2338.6137,606.78424 2348.7244,601.06738 2349.7424,602.43015 2358.3126,595.64601 2360.3844,594.006 2361.9026,591.75758 2363.9408,590.0769 2367.5439,587.10586 2371.5349,584.62239 2375.1973,581.72324 2380.3451,577.64827 2384.1201,571.87542 2389.268,567.80045 2390.9058,566.50391 2393.0976,566.08372 2394.8962,565.0159 2397.7964,563.29407 2400.6975,561.5374 2403.3386,559.44678 2405.4104,557.80677 2406.895,555.51768 2408.9668,553.87767 2411.6079,551.78705 2414.7681,550.39918 2417.4092,548.30856 2421.5527,545.02853 2424.9136,540.88307 2428.6657,537.17033 2431.4798,534.38578 2434.518,531.80658 2437.108,528.81666 2440.1604,525.29301 2442.5479,521.2437 2445.5505,517.67844 2447.2489,515.66162 2449.707,514.29371 2451.1787,512.10932 2453.5057,508.65551 2454.3686,504.34889 2456.8069,500.9711 2459.1202,497.76665 2462.4352,495.40199 2465.2494,492.61743 2468.0634,489.83288 2470.8775,487.04832 2473.6917,484.26377 2476.5058,481.47921 2479.32,478.69465 2482.1341,475.9101 2484.9482,473.12554 2487.2651,469.74082 2490.5764,467.55643 2495.8122,464.10261 2502.0654,462.40624 2507.4612,459.20276 2511.483,456.81502 2514.6959,453.23683 2518.7177,450.84909 2524.5805,447.36839 2539.8236,440.79375 2546.8589,436.92631 2551.6403,434.29791 2555.8511,430.58269 2560.9296,428.57264 2565.3706,426.81491 2570.5593,427.54582 2575.0002,425.78809 2580.0786,423.77805 2584.1786,419.85483 2589.0708,417.43442 2593.589,415.19905 2598.3491,413.44595 2603.1415,411.8653 2606.8106,410.6551 2610.9386,410.79224 2614.3979,409.08075 2618.593,407.00526 2621.2629,402.35662 2625.6544,400.72708 2629.1677,399.42345 2633.1965,401.25214 2636.911,400.72708 2639.8475,400.31198 2642.5011,398.74888 2645.3533,397.94253 2649.0722,396.89116 2652.8343,395.98816 2656.6098,395.15796 2661.279,394.13127 2666.1428,393.87007 2670.6805,392.37341 2671.9389,391.95831 2672.3081,390.17589 2673.4945,389.58886 2676.1478,388.2762 2679.1228,387.73249 2681.937,386.8043 2684.7511,385.87611 2687.4534,384.50228 2690.3793,384.01974 2693.1552,383.56196 2696.0623,384.56583 2698.8217,384.01974 2705.5353,382.69112 2711.6519,374.58062 2718.5205,372.88152 2720.3406,372.43128 2722.3287,373.33176 2724.1488,372.88152 2726.1837,372.37814 2727.7203,370.504 2729.7771,370.09696 2733.8488,369.29117 2742.586,371.10523 2746.6618,370.09696 2748.6967,369.59358 2750.2551,367.81579 2752.29,367.31241 2758.5436,365.76544 2759.3254,369.63287 2766.3606,367.31241 2769.5693,366.25412 2771.5944,362.80159 2774.8031,361.74329 2778.3207,360.58307 2784.9651,362.51678 2788.8737,361.74329 2791.7824,361.16766 2794.4073,359.53437 2797.316,358.95874 2812.3502,355.9835 2790.9827,364.25004 2811.3867,356.17419 2813.3342,355.40337 2814.9582,353.79666 2817.0149,353.38962 2819.7744,352.84353 2822.8445,354.42378 2825.4573,353.38962 2827.9207,352.41461 2828.8105,349.17123 2831.0855,347.82052 2840.0264,342.51239 2840.4337,346.74296 2850.7844,345.03595 2852.8534,344.69475 2854.4651,343.02222 2856.4127,342.2514 2861.9211,340.0712 2867.7891,338.86249 2873.2975,336.68229 2875.2449,335.91148 2877.0496,334.82591 2878.9257,333.89773 2880.8017,332.96954 2882.8087,332.26444 2884.5539,331.11318 2885.6577,330.38505 2886.1815,328.91566 2887.3681,328.32862 2890.0212,327.01597 2893.2668,327.0542 2895.8104,325.54406 2898.0855,324.19336 2899.3161,321.55013 2901.4387,319.97495 2904.7947,317.48437 2909.2047,316.70838 2912.6952,314.40584 2913.7989,313.67771 2914.2508,312.03638 2915.5093,311.62128 2917.2891,311.03424 2919.4595,312.45148 2921.1376,311.62128 2926.7658,308.83673 2925.3587,306.05217 2929.5799,303.26761 2929.2595,297.99247 2936.1462,301.41124 2938.0223,300.48306 2939.2088,299.89602 2939.6499,298.28553 2940.8364,297.69851 2941.6754,297.28341 2942.87,298.21336 2943.6505,297.69851 2945.8582,296.24225 2947.1562,293.70457 2949.2788,292.12939 2950.9568,290.8841 2953.1618,290.4961 2954.907,289.34484 2956.0109,288.61671 2956.4627,286.97537 2957.7212,286.56027 2959.501,285.97324 2961.5696,287.14731 2963.3494,286.56027 2964.6079,286.14518 2964.977,284.36276 2966.1636,283.77572 2966.7943,283.46367 2976.7513,283.77572 2977.4201,283.77572 2978.6874,283.77572 2985.006,283.352 2985.8624,283.77572 2991.9014,286.7635 2985.992,286.81659 2988.6765,292.12939 2989.8631,294.47753 2993.4658,295.20792 2994.3048,297.69851 2995.4913,301.22072 2994.3048,305.12398 2994.3048,308.83673 2994.3048,313.47765 2994.3048,318.11858 2994.3048,322.75951 2994.3048,326.47225 2994.3048,330.18499 2994.3048,333.89773 2994.3048,337.61048 2995.6222,341.55961 2994.3048,345.03595 2974.5174,397.248 2997.1935,305.75707 2980.2342,372.88152 2978.8503,378.35887 2979.0596,384.18103 2977.4201,389.58886 2976.2146,393.56476 2973.4956,396.93387 2971.7918,400.72708 2969.7402,405.2947 2968.4226,410.17913 2966.1636,414.64986 2963.7175,419.49069 2959.4509,423.43818 2957.7212,428.57264 2956.5347,432.09486 2959.0387,436.23452 2957.7212,439.71087 2956.0743,444.0563 2951.6058,446.81964 2949.2788,450.84909 2945.8907,456.71606 2947.0387,464.47401 2943.6505,470.34098 2941.676,473.76009 2937.1409,475.25226 2935.2082,478.69465 2932.327,483.82627 2931.9895,490.03759 2929.5799,495.40199 2928.2063,498.46017 2925.4642,500.76235 2923.9516,503.75566 2921.6926,508.22639 2920.5825,513.20771 2918.3235,517.67844 2915.8774,522.51926 2912.3271,526.7604 2909.881,531.60122 2904.56,538.02751 2905.0229,546.78449 2901.4387,553.87767 2884.0987,588.19321 2909.2844,527.80319 2892.9963,576.15412 2886.1734,596.40781 2887.6443,577.84527 2881.7398,601.21513 2881.0572,603.91654 2882.1378,606.81223 2881.7398,609.56879 2874.1182,639.73472 2882.7067,601.91478 2878.9257,631.84525 2878.446,635.6427 2876.5913,639.18601 2876.1115,642.98347 2870.2928,689.04432 2881.9303,619.19907 2876.1115,665.25992 2875.6319,669.05738 2873.7771,672.60069 2873.2975,676.39814 2872.8321,680.08222 2874.2074,683.93448 2873.2975,687.53636 2872.28,691.5634 2868.5792,694.62247 2867.6692,698.6746 2866.6517,703.20501 2867.6692,707.95645 2867.6692,712.59737 2867.6692,721.87923 2867.6692,731.16108 2867.6692,740.44294 2867.6692,753.43753 2867.6692,766.43213 2867.6692,779.42673 2867.6692,784.99583 2866.9711,790.60796 2867.6692,796.13407 2868.1489,799.93151 2869.5452,803.55954 2870.4833,807.27229 2871.4213,810.98503 2872.2349,814.73075 2873.2975,818.41051 2874.1123,821.23275 2875.6239,823.86893 2876.1115,826.76418 2876.5742,829.51085 2875.0664,832.53246 2876.1115,835.11785 2877.0969,837.55538 2880.5532,838.33882 2881.7398,840.68696 2883.4695,844.10994 2883.4914,848.14542 2884.5539,851.82518 2885.3688,854.64743 2886.7863,857.30067 2887.3681,860.17885 2887.7359,861.99917 2887.0001,863.92764 2887.3681,865.74797 2887.9498,868.62615 2889.6004,871.22346 2890.1822,874.10164 2890.5501,875.92196 2889.3432,878.01036 2890.1822,879.67075 2891.3687,882.0189 2894.6239,882.89171 2895.8104,885.23986 2896.6494,886.90025 2895.3554,889.00803 2895.8104,890.80897 2896.3191,892.82249 2898.1159,894.36456 2898.6246,896.37809 2899.1595,898.49565 2898.6246,907.96911 2898.6246,910.30086 2898.6246,917.72635 2898.6246,925.15183 2898.6246,932.57732 2898.6246,937.21824 2898.6246,941.85917 2898.6246,946.5001 2898.6246,953.79432 2899.8707,962.0804 2895.8104,968.77654 2894.4454,971.02773 2891.8396,972.29564 2890.1822,974.34566 2874.5105,993.7294 2896.1659,971.20939 2876.1115,991.053 2874.2355,992.90937 2872.9467,995.64709 2870.4833,996.62211 2867.8704,997.65627 2864.771,995.94675 2862.0409,996.62211 2857.1402,997.83441 2852.6605,1000.3349 2847.9703,1002.1912 2842.3421,1003.1194 2836.6453,1003.7062 2831.0855,1004.9758 2824.4313,1006.4952 2817.953,1008.6885 2811.3867,1010.5449 2804.8204,1013.3295 2798.5905,1017.0772 2791.6878,1018.8986 2784.3804,1020.8267 2776.6791,1020.7549 2769.1748,1021.6831 2761.6704,1024.4677 2754.3116,1027.6713 2746.6618,1030.0367 2712.912,1040.4728 2735.127,1031.6548 2698.8217,1038.3905 2692.1096,1039.6357 2685.8002,1042.5437 2679.1228,1043.9596 2672.6371,1045.3348 2665.9903,1045.8159 2659.4239,1046.7441 2652.8576,1047.6723 2646.3433,1049.0921 2639.7251,1049.5286 2626.6216,1050.3931 2613.4599,1049.5286 2600.3273,1049.5286 2582.5046,1049.5286 2564.6817,1049.5286 2546.8589,1049.5286 2541.2307,1049.5286 2535.6024,1049.5286 2529.9742,1049.5286 2524.346,1049.5286 2518.5927,1050.6955 2513.0895,1049.5286 2505.2528,1047.8671 2498.3204,1043.2184 2490.5764,1041.175 2484.1675,1039.4839 2477.2866,1040.0816 2470.8775,1038.3905 2463.1335,1036.3471 2456.0709,1032.2155 2448.3646,1030.0367 2442.8782,1028.4858 2436.9846,1028.7378 2431.4798,1027.2522 2420.4552,1024.2771 2412.9437,1019.2696 2403.3386,1013.3295 2393.2437,1007.0864 2382.8853,1000.1817 2375.1973,991.053 2364.3477,978.17027 2373.9069,987.48386 2366.755,971.56111 2364.5336,966.61537 2361.2492,962.20439 2358.3126,957.63832 2339.3641,928.17496 2354.6442,952.45283 2338.6137,929.79276 2327.9946,914.78198 2325.1889,908.58279 2313.2865,893.59353 2296.5191,872.47731 2297.2226,874.79777 2276.703,857.3943 2270.1366,851.82518 2264.1307,845.535 2257.0041,840.68696 2249.0458,835.27307 2239.567,832.27511 2231.677,826.76418 2223.5306,821.0742 2217.1412,813.19234 2209.164,807.27229 2202.0844,802.0184 2194.1553,797.99043 2186.6509,793.3495 2179.1467,788.70858 2171.8214,783.77116 2164.138,779.42673 2158.6745,776.33753 2152.562,774.41589 2147.2532,771.07306 2142.5232,768.09466 2119.4255,748.26278 2116.2978,746.01205 2111.8743,742.82875 2106.7782,740.66054 2102.2272,737.65838 2094.4222,732.50974 2087.6688,725.87042 2079.7142,720.95104 2076.1568,718.75103 2071.8713,717.79463 2068.4577,715.38193 2065.2192,713.09304 2063.3267,709.21265 2060.0154,707.02826 2054.7796,703.57444 2048.2857,702.24523 2043.1306,698.6746 2038.7834,695.66357 2035.8401,691.02468 2031.8741,687.53636 2022.9601,679.69604 2011.0452,671.272 2000.9187,665.25992 1990.127,658.85295 1978.0762,654.73096 1967.1492,648.55258 1961.2761,645.2318 1956.2029,640.61943 1950.2645,637.41435 1950.2058,637.38264 1922.3146,626.36032 1922.1232,626.27613 1918.2897,624.59027 1914.7618,622.24865 1910.8667,620.70702 1905.3583,618.52683 1899.4033,617.52209 1893.982,615.13791 1890.8914,613.77872 1888.3538,611.42517 1885.5396,609.56879 1882.7255,607.71242 1879.8494,605.94487 1877.0972,603.99968 1873.2807,601.3022 1869.9407,597.89985 1865.8407,595.64601 1861.4249,593.21856 1856.156,592.55682 1851.7701,590.0769 1849.4665,588.77438 1848.1801,586.18847 1846.1418,584.50779 1842.5387,581.53674 1838.6375,578.93867 1834.8854,576.15412 1831.1332,573.36957 1827.6062,570.26014 1823.6289,567.80045 1820.0714,565.60044 1816.0395,564.24722 1812.3723,562.23134 1807.591,559.60294 1803.083,556.50607 1798.3017,553.87767 1794.6346,551.86178 1790.7974,550.16493 1787.0452,548.30856 1783.2931,546.45219 1779.6446,544.3746 1775.7888,542.73945 1770.3357,540.427 1764.4124,539.35053 1758.904,537.17033 1755.009,535.6287 1751.3997,533.4576 1747.6475,531.60122 1745.7714,530.67303 1743.7645,529.96793 1742.0192,528.81666 1740.9155,528.08853 1740.3917,526.61915 1739.2051,526.03211 1738.3661,525.61701 1737.301,526.25722 1736.391,526.03211 1733.5132,525.32023 1730.8264,523.95944 1727.9486,523.24756 1721.0608,521.54368 1729.5263,528.92918 1716.6921,520.46299 1713.3808,518.27862 1711.9077,513.66057 1708.2497,512.10932 1704.8009,510.64681 1700.6333,513.0098 1696.9933,512.10932 1692.9234,511.10257 1689.4889,508.39659 1685.7367,506.54022 1680.1085,503.75566 1674.7657,500.3144 1668.852,498.18655 1668.6998,498.13178 1641.0509,492.70924 1640.7107,492.61743 1634.9871,491.07284 1629.6068,488.36832 1623.8259,487.04832 1617.3629,485.57251 1610.683,485.26175 1604.1271,484.26377 1598.4876,483.40526 1592.9286,481.94807 1587.2424,481.47921 1581.6335,481.01672 1575.9664,481.9417 1570.3576,481.47921 1551.1518,479.89554 1533.281,471.92465 1514.0751,470.34098 1508.4663,469.8785 1502.8043,470.73777 1497.1904,470.34098 1489.6469,469.80782 1482.164,468.61472 1474.6774,467.55643 1469.0288,466.75797 1463.484,465.17413 1457.7926,464.77188 1450.3073,464.24283 1442.7839,464.77188 1435.2796,464.77188 1429.6514,464.77188 1423.9323,465.76811 1418.3949,464.77188 1413.4248,463.87772 1409.2776,460.18304 1404.3242,459.20276 1399.7251,458.2926 1394.9206,459.66455 1390.2536,459.20276 1385.4943,458.73183 1380.9369,456.94086 1376.183,456.41821 1372.4537,456.0082 1368.6276,457.02858 1364.9265,456.41821 1362.8575,456.07699 1361.3672,453.97486 1359.2982,453.63364 1355.5971,453.02327 1351.7649,454.09416 1348.0417,453.63364 1320.0685,450.17373 1350.8297,450.84909 1328.3428,450.84909 1324.5907,450.84909 1320.8385,450.84909 1317.0864,450.84909 1312.3962,450.84909 1307.5943,451.85585 1303.0158,450.84909 1298.9206,449.94862 1295.8544,446.18045 1291.7593,445.27998 1287.1808,444.27322 1282.3789,445.27998 1277.6887,445.27998 1262.68,445.27998 1247.6713,445.27998 1232.6626,445.27998 1199.8312,445.27998 1166.9997,445.27998 1134.1683,445.27998 1102.2748,445.27998 1070.3814,445.27998 1038.488,445.27998 1031.9218,445.27998 1025.3554,445.27998 1018.7891,445.27998 1015.037,445.27998 1011.2242,444.61583 1007.5327,445.27998 1000.8138,446.48876 994.51123,449.43324 987.8337,450.84909 981.34803,452.22428 974.47452,451.70349 968.13488,453.63364 962.12057,455.46476 957.12328,459.75215 951.25013,461.98731 951.21856,461.99933 911.99405,473.08241 911.85238,473.12554 880.65416,482.62413 909.2598,474.22497 872.45463,489.83288 867.00162,492.14533 860.97081,492.97282 855.56988,495.40199 850.59048,497.64157 846.22385,501.02861 841.49926,503.75566 838.91802,505.24557 812.47053,519.96388 807.72975,523.24756 802.80912,526.6558 798.51673,530.8901 793.65913,534.38578 782.71804,542.25933 770.71254,548.63034 759.88964,556.66223 754.02857,561.01184 748.63313,565.94408 743.00489,570.585 736.43859,575.22594 729.87231,579.86686 723.30601,584.50779 716.73972,589.14871 710.32123,594.00154 703.60714,598.43057 699.05609,601.43272 694.15107,603.87856 689.53651,606.78424 683.82973,610.37768 678.35856,614.32902 672.65177,617.92246 663.42266,623.73382 653.47238,628.42241 644.51052,634.6298 639.58989,638.03806 634.96017,641.85434 630.43989,645.76802 624.44973,650.95435 619.54532,657.28904 613.55514,662.47536 579.91927,691.59751 618.19865,658.90753 585.41389,679.1827 582.03905,681.26981 579.9666,684.9432 576.97152,687.53636 572.45125,691.45005 567.70602,695.10862 562.9009,698.6746 560.19517,700.68257 557.27264,702.38734 554.45852,704.2437 548.83027,707.95645 543.51213,712.17686 537.57377,715.38193 533.13907,717.77545 528.11928,718.92098 523.50315,720.95104 510.92726,726.4816 498.51353,733.14245 486.91952,740.44294 481.21273,744.03638 475.83512,748.13752 470.03477,751.58116 443.21358,767.50479 476.29069,744.66981 444.70765,765.50394 435.83159,768.36987 432.0462,777.23737 425.00878,782.21128 421.59512,784.62399 417.16593,785.36769 413.75227,787.7804 410.5138,790.06928 408.41758,793.67404 405.30991,796.13407 403.67201,797.43061 401.42689,797.76735 399.68165,798.91862 395.77917,801.49294 392.32764,804.69797 388.42515,807.27229 381.04843,812.13843 383.50734,808.31308 374.35452,812.8414 369.4623,815.26181 364.83494,818.19291 360.2839,821.19507 359.18012,821.9232 358.65631,823.39259 357.46978,823.97962 346.51726,829.39835 350.39399,824.19568 337.77091,829.54874 334.66221,830.86703 332.22871,833.39603 329.32853,835.11785 325.7313,837.2535 321.42807,838.19638 318.07203,840.68696 315.94949,842.26215 314.51557,844.61606 312.44378,846.25608 309.80276,848.34669 306.64243,849.73457 304.0014,851.82518 301.92962,853.4652 300.44494,855.75428 298.37316,857.3943 295.73213,859.48491 292.5718,860.87279 289.93078,862.96341 287.85899,864.60342 286.37432,866.8925 284.30253,868.53252 281.66151,870.62314 278.2517,871.73522 275.86015,874.10164 274.37698,875.56922 274.52921,878.20315 273.04603,879.67075 270.65449,882.03717 267.20191,883.0974 264.60365,885.23986 257.49915,891.09808 252.0093,898.87354 244.90478,904.73176 242.30654,906.87421 239.10343,908.21025 236.4624,910.30086 234.39062,911.94088 232.71024,914.01361 230.83416,915.86998 228.02004,918.65453 225.20591,921.43909 222.39178,924.22365 219.57766,927.0082 216.43555,929.50229 213.94941,932.57732 196.87018,953.70204 217.99073,928.69711 205.50703,949.28465 204.14198,951.53584 201.06532,952.50562 199.87879,954.85377 199.03977,956.51415 200.71779,958.76249 199.87879,960.42287 198.69225,962.77102 195.2359,963.55446 194.25053,965.99199 193.2054,968.57738 194.93306,971.64424 194.25053,974.34566 193.92879,975.61911 192.02968,975.95614 191.43641,977.13021 191.0169,977.96041 191.73305,979.03422 191.43641,979.91477 190.77311,981.88375 189.28558,983.5149 188.62229,985.48388 188.32565,986.36444 188.91892,987.38788 188.62229,988.26844 185.4147,997.79007 186.28815,990.34057 180.17991,999.40666 179.65958,1000.179 180.59941,1001.3611 180.17991,1002.1912 179.80632,1002.9305 172.48472,1010.1752 171.73754,1010.5449 170.89852,1010.96 169.86146,1010.5449 168.92342,1010.5449 167.04732,1010.5449 165.14572,1010.2397 163.29516,1010.5449 159.48014,1011.1741 155.62968,1011.9081 152.03866,1013.3295 150.80695,1013.817 150.41107,1015.527 149.22454,1016.114 148.38553,1016.5291 147.34845,1016.114 146.41041,1016.114 143.59629,1016.114 140.78216,1016.114 137.96803,1016.114 136.09195,1016.114 134.17944,1015.75 132.33979,1016.114 129.43104,1016.6897 126.77519,1018.1867 123.89741,1018.8986 122.98737,1019.1237 122.02133,1018.8986 121.08329,1018.8986 117.33112,1018.8986 113.57896,1018.8986 109.82679,1018.8986 101.38441,1018.8986 92.942035,1018.8986 84.49966,1018.8986"
       id="path2985"
       inkscape:connector-curvature="0" />
  </g>
</svg>
